SplineFontDB: 3.0
FontName: Version_0.5_10
FullName: Version_0.5_10
FamilyName: Version_0.5_10
Weight: Medium
Copyright: Made with Bash, Inkscape, Python, FontForge.
Version: 001.000
ItalicAngle: 0
UnderlinePosition: 100
UnderlineWidth: -50
Ascent: 785
Descent: 215
InvalidEm: 0
sfntRevision: 0x00010000
LayerCount: 2
Layer: 0 1 "Back" 1
Layer: 1 1 "Fore" 0
XUID: [1021 762 -2135278063 8147417]
StyleMap: 0x0040
FSType: 0
OS2Version: 4
OS2_WeightWidthSlopeOnly: 0
OS2_UseTypoMetrics: 1
CreationTime: 1296832076
ModificationTime: 1685448044
PfmFamily: 17
TTFWeight: 500
TTFWidth: 5
LineGap: 90
VLineGap: 0
Panose: 2 0 6 3 0 0 0 0 0 0
OS2TypoAscent: 785
OS2TypoAOffset: 0
OS2TypoDescent: -215
OS2TypoDOffset: 0
OS2TypoLinegap: 90
OS2WinAscent: 835
OS2WinAOffset: 0
OS2WinDescent: 216
OS2WinDOffset: 0
HheadAscent: 835
HheadAOffset: 0
HheadDescent: -216
HheadDOffset: 0
OS2SubXSize: 650
OS2SubYSize: 700
OS2SubXOff: 0
OS2SubYOff: 140
OS2SupXSize: 650
OS2SupYSize: 700
OS2SupXOff: 0
OS2SupYOff: 480
OS2StrikeYSize: 49
OS2StrikeYPos: 258
OS2CapHeight: 586
OS2XHeight: 468
OS2Vendor: 'PfEd'
OS2CodePages: 00000001.00000000
OS2UnicodeRanges: 00000003.00000000.00000000.00000000
MarkAttachClasses: 1
DEI: 91125
ShortTable: cvt  2
  33
  633
EndShort
ShortTable: maxp 16
  1
  0
  136
  100
  5
  0
  0
  2
  0
  1
  1
  0
  64
  46
  0
  0
EndShort
LangName: 1033 "" "" "" "FontForge 2.0 : Version_0.5_10 : 30-7-2014"
GaspTable: 1 65535 2 0
Encoding: UnicodeBmp
UnicodeInterp: none
NameList: AGL For New Fonts
DisplaySize: -48
AntiAlias: 1
FitToEm: 0
WinInfo: 57 19 16
BeginChars: 65539 136

StartChar: .notdef
Encoding: 65536 -1 0
Width: 364
Flags: W
LayerCount: 2
Fore
SplineSet
33 0 m 1,0,-1
 33 666 l 1,1,-1
 298 666 l 1,2,-1
 298 0 l 1,3,-1
 33 0 l 1,0,-1
66 33 m 1,4,-1
 265 33 l 1,5,-1
 265 633 l 1,6,-1
 66 633 l 1,7,-1
 66 33 l 1,4,-1
EndSplineSet
EndChar

StartChar: exclam
Encoding: 33 33 3
Width: 228
GlyphClass: 2
Flags: W
LayerCount: 2
Fore
SplineSet
102 100 m 1,0,-1
 102 100 l 1,1,-1
 123 99 l 1,2,-1
 123 99 l 1,3,-1
 146 90 l 1,4,-1
 146 90 l 1,5,-1
 158 67 l 1,6,-1
 158 67 l 1,7,-1
 160 45 l 1,8,-1
 160 45 l 1,9,-1
 158 23 l 1,10,-1
 158 23 l 1,11,-1
 148 2 l 1,12,-1
 148 2 l 1,13,-1
 125 -10 l 1,14,-1
 125 -10 l 1,15,-1
 102 -12 l 1,16,-1
 102 -12 l 1,17,-1
 82 -11 l 1,18,-1
 82 -11 l 1,19,-1
 57 2 l 1,20,-1
 57 2 l 1,21,-1
 48 23 l 1,22,-1
 48 23 l 1,23,-1
 46 46 l 1,24,-1
 46 46 l 1,25,-1
 47 65 l 1,26,-1
 47 65 l 1,27,-1
 57 87 l 1,28,-1
 57 87 l 1,29,-1
 80 98 l 1,30,-1
 80 98 l 1,31,-1
 102 100 l 1,0,-1
102 100 m 1,32,-1
 80 98 l 1,33,-1
 57 87 l 1,34,-1
 47 65 l 1,35,-1
 46 46 l 1,36,-1
 48 23 l 1,37,-1
 57 2 l 1,38,-1
 82 -11 l 1,39,-1
 102 -12 l 1,40,-1
 125 -10 l 1,41,-1
 148 2 l 1,42,-1
 158 23 l 1,43,-1
 160 45 l 1,44,-1
 158 67 l 1,45,-1
 146 90 l 1,46,-1
 123 99 l 1,47,-1
 102 100 l 1,32,-1
102 618 m 1,48,-1
 102 618 l 1,49,-1
 102 205 l 1,50,-1
 102 205 l 1,51,-1
 102 618 l 1,48,-1
EndSplineSet
EndChar

StartChar: quotedbl
Encoding: 34 34 4
Width: 289
GlyphClass: 2
Flags: W
LayerCount: 2
Fore
SplineSet
55 621 m 1,0,-1
 80 501 l 1,1,-1
 80 501 l 1,2,-1
 55 383 l 1,3,-1
 55 383 l 1,4,-1
 80 501 l 1,5,-1
 55 621 l 1,6,-1
 55 621 l 1,0,-1
219 621 m 1,7,-1
 244 501 l 1,8,-1
 244 501 l 1,9,-1
 219 383 l 1,10,-1
 219 383 l 1,11,-1
 244 501 l 1,12,-1
 219 621 l 1,13,-1
 219 621 l 1,7,-1
EndSplineSet
EndChar

StartChar: numbersign
Encoding: 35 35 5
Width: 534
GlyphClass: 2
Flags: W
LayerCount: 2
Fore
SplineSet
410 602 m 1,0,-1
 410 602 l 1,1,-1
 380 423 l 1,2,-1
 489 423 l 1,3,-1
 489 423 l 1,4,-1
 380 423 l 1,5,-1
 345 186 l 1,6,-1
 460 186 l 1,7,-1
 460 186 l 1,8,-1
 345 186 l 1,9,-1
 321 1 l 1,10,-1
 321 1 l 1,11,-1
 345 186 l 1,12,-1
 149 186 l 1,13,-1
 125 1 l 1,14,-1
 125 1 l 1,15,-1
 149 186 l 1,16,-1
 45 186 l 1,17,-1
 45 186 l 1,18,-1
 149 186 l 1,19,-1
 183 424 l 1,20,-1
 74 424 l 1,21,-1
 74 424 l 1,22,-1
 183 424 l 1,23,-1
 218 601 l 1,24,-1
 218 601 l 1,25,-1
 183 424 l 1,26,-1
 380 423 l 1,27,-1
 410 602 l 1,0,-1
183 424 m 1,28,-1
 149 186 l 1,29,-1
 345 186 l 1,30,-1
 380 423 l 1,31,-1
 183 424 l 1,28,-1
EndSplineSet
EndChar

StartChar: percent
Encoding: 37 37 6
Width: 754
GlyphClass: 2
Flags: W
LayerCount: 2
Fore
SplineSet
561 299 m 1,0,-1
 561 299 l 1,1,-1
 622 293 l 1,2,-1
 622 293 l 1,3,-1
 682 271 l 1,4,-1
 682 271 l 1,5,-1
 706 213 l 1,6,-1
 706 213 l 1,7,-1
 715 155 l 1,8,-1
 715 155 l 1,9,-1
 707 94 l 1,10,-1
 707 94 l 1,11,-1
 682 34 l 1,12,-1
 682 34 l 1,13,-1
 622 10 l 1,14,-1
 622 10 l 1,15,-1
 561 1 l 1,16,-1
 561 1 l 1,17,-1
 501 10 l 1,18,-1
 501 10 l 1,19,-1
 441 34 l 1,20,-1
 441 34 l 1,21,-1
 418 94 l 1,22,-1
 418 94 l 1,23,-1
 410 155 l 1,24,-1
 410 155 l 1,25,-1
 418 214 l 1,26,-1
 418 214 l 1,27,-1
 441 271 l 1,28,-1
 441 271 l 1,29,-1
 500 293 l 1,30,-1
 500 293 l 1,31,-1
 561 299 l 1,0,-1
561 299 m 1,32,-1
 500 293 l 1,33,-1
 441 271 l 1,34,-1
 418 214 l 1,35,-1
 410 155 l 1,36,-1
 418 94 l 1,37,-1
 441 34 l 1,38,-1
 501 10 l 1,39,-1
 561 1 l 1,40,-1
 622 10 l 1,41,-1
 682 34 l 1,42,-1
 707 94 l 1,43,-1
 715 155 l 1,44,-1
 706 213 l 1,45,-1
 682 271 l 1,46,-1
 622 293 l 1,47,-1
 561 299 l 1,32,-1
590 623 m 1,48,-1
 590 623 l 1,49,-1
 173 -4 l 1,50,-1
 173 -4 l 1,51,-1
 590 623 l 1,48,-1
206 607 m 1,52,-1
 206 607 l 1,53,-1
 267 601 l 1,54,-1
 267 601 l 1,55,-1
 327 579 l 1,56,-1
 327 579 l 1,57,-1
 351 521 l 1,58,-1
 351 521 l 1,59,-1
 360 463 l 1,60,-1
 360 463 l 1,61,-1
 352 402 l 1,62,-1
 352 402 l 1,63,-1
 327 342 l 1,64,-1
 327 342 l 1,65,-1
 267 318 l 1,66,-1
 267 318 l 1,67,-1
 206 309 l 1,68,-1
 206 309 l 1,69,-1
 146 318 l 1,70,-1
 146 318 l 1,71,-1
 86 342 l 1,72,-1
 86 342 l 1,73,-1
 63 402 l 1,74,-1
 63 402 l 1,75,-1
 55 463 l 1,76,-1
 55 463 l 1,77,-1
 63 522 l 1,78,-1
 63 522 l 1,79,-1
 86 579 l 1,80,-1
 86 579 l 1,81,-1
 145 601 l 1,82,-1
 145 601 l 1,83,-1
 206 607 l 1,52,-1
206 607 m 1,84,-1
 145 601 l 1,85,-1
 86 579 l 1,86,-1
 63 522 l 1,87,-1
 55 463 l 1,88,-1
 63 402 l 1,89,-1
 86 342 l 1,90,-1
 146 318 l 1,91,-1
 206 309 l 1,92,-1
 267 318 l 1,93,-1
 327 342 l 1,94,-1
 352 402 l 1,95,-1
 360 463 l 1,96,-1
 351 521 l 1,97,-1
 327 579 l 1,98,-1
 267 601 l 1,99,-1
 206 607 l 1,84,-1
EndSplineSet
EndChar

StartChar: ampersand
Encoding: 38 38 7
Width: 582
GlyphClass: 2
Flags: W
LayerCount: 2
Fore
SplineSet
211 597 m 1,0,-1
 211 597 l 1,1,-1
 262 586 l 1,2,-1
 262 586 l 1,3,-1
 300 562 l 1,4,-1
 300 562 l 1,5,-1
 321 505 l 1,6,-1
 321 505 l 1,7,-1
 326 460 l 1,8,-1
 326 460 l 1,9,-1
 206 321 l 1,10,-1
 294 225 l 1,11,-1
 354 167 l 1,12,-1
 488 325 l 1,13,-1
 488 325 l 1,14,-1
 354 167 l 1,15,-1
 530 -3 l 1,16,-1
 530 -3 l 1,17,-1
 354 167 l 1,18,-1
 354 167 l 1,19,-1
 215 -13 l 1,20,-1
 215 -13 l 1,21,-1
 151 -10 l 1,22,-1
 151 -10 l 1,23,-1
 91 18 l 1,24,-1
 91 18 l 1,25,-1
 55 83 l 1,26,-1
 55 83 l 1,27,-1
 46 158 l 1,28,-1
 46 158 l 1,29,-1
 206 321 l 1,30,-1
 206 321 l 1,31,-1
 68 460 l 1,32,-1
 68 460 l 1,33,-1
 78 511 l 1,34,-1
 78 511 l 1,35,-1
 115 557 l 1,36,-1
 115 557 l 1,37,-1
 156 587 l 1,38,-1
 156 587 l 1,39,-1
 211 597 l 1,0,-1
211 597 m 1,40,-1
 156 587 l 1,41,-1
 115 557 l 1,42,-1
 78 511 l 1,43,-1
 68 460 l 1,44,-1
 206 321 l 1,45,-1
 326 460 l 1,46,-1
 321 505 l 1,47,-1
 300 562 l 1,48,-1
 262 586 l 1,49,-1
 211 597 l 1,40,-1
206 321 m 1,50,-1
 206 321 l 1,51,-1
 46 158 l 1,52,-1
 55 83 l 1,53,-1
 91 18 l 1,54,-1
 151 -10 l 1,55,-1
 215 -13 l 1,56,-1
 354 167 l 1,57,-1
 354 167 l 1,58,-1
 294 225 l 1,59,-1
 206 321 l 1,50,-1
EndSplineSet
EndChar

StartChar: quotesingle
Encoding: 39 39 8
Width: 168
GlyphClass: 2
Flags: W
LayerCount: 2
Fore
SplineSet
123 620 m 1,0,-1
 123 620 l 1,1,-1
 116 561 l 1,2,-1
 116 561 l 1,3,-1
 104 501 l 1,4,-1
 86 441 l 1,5,-1
 86 441 l 1,6,-1
 54 382 l 1,7,-1
 54 382 l 1,8,-1
 86 441 l 1,9,-1
 104 501 l 1,10,-1
 104 501 l 1,11,-1
 116 561 l 1,12,-1
 123 620 l 1,0,-1
EndSplineSet
EndChar

StartChar: parenleft
Encoding: 40 40 9
Width: 242
GlyphClass: 2
Flags: W
LayerCount: 2
Fore
SplineSet
189 746 m 1,0,-1
 189 746 l 1,1,-1
 115 648 l 1,2,-1
 67 529 l 1,3,-1
 48 437 l 1,4,-1
 45 313 l 1,5,-1
 45 313 l 1,6,-1
 48 194 l 1,7,-1
 67 99 l 1,8,-1
 110 -19 l 1,9,-1
 189 -116 l 1,10,-1
 189 -116 l 1,11,-1
 110 -19 l 1,12,-1
 110 -19 l 1,13,-1
 67 99 l 1,14,-1
 67 99 l 1,15,-1
 48 194 l 1,16,-1
 48 194 l 1,17,-1
 45 313 l 1,18,-1
 45 313 l 1,19,-1
 48 437 l 1,20,-1
 48 437 l 1,21,-1
 67 529 l 1,22,-1
 115 648 l 1,23,-1
 115 648 l 1,24,-1
 189 746 l 1,0,-1
EndSplineSet
EndChar

StartChar: parenright
Encoding: 41 41 10
Width: 242
GlyphClass: 2
Flags: W
LayerCount: 2
Fore
SplineSet
53 746 m 1,0,-1
 128 647 l 1,1,-1
 128 647 l 1,2,-1
 176 529 l 1,3,-1
 176 529 l 1,4,-1
 194 436 l 1,5,-1
 194 436 l 1,6,-1
 197 312 l 1,7,-1
 197 312 l 1,8,-1
 194 193 l 1,9,-1
 194 193 l 1,10,-1
 175 98 l 1,11,-1
 175 98 l 1,12,-1
 131 -20 l 1,13,-1
 131 -20 l 1,14,-1
 53 -116 l 1,15,-1
 53 -116 l 1,16,-1
 131 -20 l 1,17,-1
 175 98 l 1,18,-1
 194 193 l 1,19,-1
 197 312 l 1,20,-1
 197 312 l 1,21,-1
 194 436 l 1,22,-1
 176 529 l 1,23,-1
 128 647 l 1,24,-1
 53 746 l 1,25,-1
 53 746 l 1,0,-1
EndSplineSet
EndChar

StartChar: plus
Encoding: 43 43 11
Width: 427
GlyphClass: 2
Flags: W
LayerCount: 2
Fore
SplineSet
215 449 m 1,0,-1
 215 449 l 1,1,-1
 214 284 l 1,2,-1
 382 282 l 1,3,-1
 382 282 l 1,4,-1
 214 284 l 1,5,-1
 214 111 l 1,6,-1
 214 111 l 1,7,-1
 214 284 l 1,8,-1
 47 284 l 1,9,-1
 47 284 l 1,10,-1
 214 284 l 1,11,-1
 215 449 l 1,0,-1
EndSplineSet
EndChar

StartChar: comma
Encoding: 44 44 12
Width: 153
GlyphClass: 2
Flags: W
LayerCount: 2
Fore
SplineSet
108 51 m 1,0,-1
 108 51 l 1,1,-1
 107 0 l 1,2,-1
 101 -50 l 1,3,-1
 101 -50 l 1,4,-1
 78 -113 l 1,5,-1
 78 -113 l 1,6,-1
 53 -152 l 1,7,-1
 53 -152 l 1,8,-1
 78 -113 l 1,9,-1
 101 -50 l 1,10,-1
 107 0 l 1,11,-1
 108 51 l 1,0,-1
EndSplineSet
EndChar

StartChar: hyphen
Encoding: 45 45 13
Width: 347
GlyphClass: 2
Flags: W
LayerCount: 2
Fore
SplineSet
173 301 m 1,0,-1
 173 301 l 1,1,-1
 300 276 l 1,2,-1
 300 276 l 1,3,-1
 173 301 l 1,4,-1
 47 276 l 1,5,-1
 47 276 l 1,6,-1
 173 301 l 1,0,-1
EndSplineSet
EndChar

StartChar: period
Encoding: 46 46 14
Width: 228
GlyphClass: 2
Flags: W
LayerCount: 2
Fore
SplineSet
103 102 m 1,0,-1
 103 102 l 1,1,-1
 124 101 l 1,2,-1
 124 101 l 1,3,-1
 147 92 l 1,4,-1
 147 92 l 1,5,-1
 159 69 l 1,6,-1
 159 69 l 1,7,-1
 161 47 l 1,8,-1
 161 47 l 1,9,-1
 159 25 l 1,10,-1
 159 25 l 1,11,-1
 149 4 l 1,12,-1
 149 4 l 1,13,-1
 126 -8 l 1,14,-1
 126 -8 l 1,15,-1
 103 -10 l 1,16,-1
 103 -10 l 1,17,-1
 83 -9 l 1,18,-1
 83 -9 l 1,19,-1
 58 4 l 1,20,-1
 58 4 l 1,21,-1
 49 25 l 1,22,-1
 49 25 l 1,23,-1
 47 48 l 1,24,-1
 47 48 l 1,25,-1
 48 67 l 1,26,-1
 48 67 l 1,27,-1
 58 89 l 1,28,-1
 58 89 l 1,29,-1
 81 100 l 1,30,-1
 81 100 l 1,31,-1
 103 102 l 1,0,-1
103 102 m 1,32,-1
 81 100 l 1,33,-1
 58 89 l 1,34,-1
 48 67 l 1,35,-1
 47 48 l 1,36,-1
 49 25 l 1,37,-1
 58 4 l 1,38,-1
 83 -9 l 1,39,-1
 103 -10 l 1,40,-1
 126 -8 l 1,41,-1
 149 4 l 1,42,-1
 159 25 l 1,43,-1
 161 47 l 1,44,-1
 159 69 l 1,45,-1
 147 92 l 1,46,-1
 124 101 l 1,47,-1
 103 102 l 1,32,-1
EndSplineSet
EndChar

StartChar: slash
Encoding: 47 47 15
Width: 310
GlyphClass: 2
Flags: W
LayerCount: 2
Fore
SplineSet
255 722 m 1,0,-1
 255 722 l 1,1,-1
 45 -84 l 1,2,-1
 45 -84 l 1,3,-1
 255 722 l 1,0,-1
EndSplineSet
EndChar

StartChar: zero
Encoding: 48 48 16
Width: 422
GlyphClass: 2
Flags: W
LayerCount: 2
Fore
SplineSet
213 597 m 1,0,-1
 213 597 l 1,1,-1
 301 571 l 1,2,-1
 301 571 l 1,3,-1
 347 497 l 1,4,-1
 347 497 l 1,5,-1
 370 393 l 1,6,-1
 370 393 l 1,7,-1
 377 289 l 1,8,-1
 377 289 l 1,9,-1
 370 186 l 1,10,-1
 370 186 l 1,11,-1
 346 82 l 1,12,-1
 346 82 l 1,13,-1
 298 11 l 1,14,-1
 298 11 l 1,15,-1
 210 -16 l 1,16,-1
 210 -16 l 1,17,-1
 124 9 l 1,18,-1
 124 9 l 1,19,-1
 76 83 l 1,20,-1
 76 83 l 1,21,-1
 52 187 l 1,22,-1
 52 187 l 1,23,-1
 45 290 l 1,24,-1
 45 290 l 1,25,-1
 52 394 l 1,26,-1
 52 394 l 1,27,-1
 76 498 l 1,28,-1
 76 498 l 1,29,-1
 125 574 l 1,30,-1
 125 574 l 1,31,-1
 213 597 l 1,0,-1
213 597 m 1,32,-1
 125 574 l 1,33,-1
 76 498 l 1,34,-1
 52 394 l 1,35,-1
 45 290 l 1,36,-1
 52 187 l 1,37,-1
 76 83 l 1,38,-1
 124 9 l 1,39,-1
 210 -16 l 1,40,-1
 298 11 l 1,41,-1
 346 82 l 1,42,-1
 370 186 l 1,43,-1
 377 289 l 1,44,-1
 370 393 l 1,45,-1
 347 497 l 1,46,-1
 301 571 l 1,47,-1
 213 597 l 1,32,-1
EndSplineSet
EndChar

StartChar: one
Encoding: 49 49 17
Width: 289
GlyphClass: 2
Flags: W
LayerCount: 2
Fore
SplineSet
244 602 m 1,0,-1
 244 602 l 1,1,-1
 244 0 l 1,2,-1
 244 0 l 1,3,-1
 244 602 l 1,4,-1
 51 454 l 1,5,-1
 51 454 l 1,6,-1
 244 602 l 1,0,-1
EndSplineSet
EndChar

StartChar: two
Encoding: 50 50 18
Width: 446
GlyphClass: 2
Flags: W
LayerCount: 2
Fore
SplineSet
221 616 m 1,0,-1
 221 616 l 1,1,-1
 298 605 l 1,2,-1
 298 605 l 1,3,-1
 343 570 l 1,4,-1
 343 570 l 1,5,-1
 375 495 l 1,6,-1
 375 495 l 1,7,-1
 361 421 l 1,8,-1
 361 421 l 1,9,-1
 45 3 l 1,10,-1
 401 5 l 1,11,-1
 401 5 l 1,12,-1
 45 3 l 1,13,-1
 45 3 l 1,14,-1
 361 421 l 1,15,-1
 375 495 l 1,16,-1
 343 570 l 1,17,-1
 298 605 l 1,18,-1
 221 616 l 1,19,-1
 154 614 l 1,20,-1
 110 599 l 1,21,-1
 73 558 l 1,22,-1
 58 503 l 1,23,-1
 58 503 l 1,24,-1
 73 558 l 1,25,-1
 73 558 l 1,26,-1
 110 599 l 1,27,-1
 110 599 l 1,28,-1
 154 614 l 1,29,-1
 156 614 l 1,30,-1
 221 616 l 1,0,-1
EndSplineSet
EndChar

StartChar: three
Encoding: 51 51 19
Width: 411
GlyphClass: 2
Flags: W
LayerCount: 2
Fore
SplineSet
230 636 m 1,0,-1
 230 636 l 1,1,-1
 293 623 l 1,2,-1
 293 623 l 1,3,-1
 344 586 l 1,4,-1
 344 586 l 1,5,-1
 366 524 l 1,6,-1
 366 524 l 1,7,-1
 362 457 l 1,8,-1
 362 457 l 1,9,-1
 355 389 l 1,10,-1
 355 389 l 1,11,-1
 319 332 l 1,12,-1
 319 332 l 1,13,-1
 257 324 l 1,14,-1
 257 324 l 1,15,-1
 177 321 l 1,16,-1
 259 309 l 1,17,-1
 259 309 l 1,18,-1
 322 284 l 1,19,-1
 322 284 l 1,20,-1
 356 222 l 1,21,-1
 356 222 l 1,22,-1
 362 146 l 1,23,-1
 362 146 l 1,24,-1
 356 73 l 1,25,-1
 344 17 l 1,26,-1
 344 17 l 1,27,-1
 288 -10 l 1,28,-1
 288 -10 l 1,29,-1
 220 -16 l 1,30,-1
 220 -16 l 1,31,-1
 156 -13 l 1,32,-1
 156 -13 l 1,33,-1
 91 7 l 1,34,-1
 91 7 l 1,35,-1
 68 39 l 1,36,-1
 68 39 l 1,37,-1
 45 90 l 1,38,-1
 45 90 l 1,39,-1
 68 39 l 1,40,-1
 91 7 l 1,41,-1
 156 -13 l 1,42,-1
 220 -16 l 1,43,-1
 288 -10 l 1,44,-1
 344 17 l 1,45,-1
 356 73 l 1,46,-1
 362 146 l 1,47,-1
 356 222 l 1,48,-1
 322 284 l 1,49,-1
 259 309 l 1,50,-1
 177 321 l 1,51,-1
 177 321 l 1,52,-1
 257 324 l 1,53,-1
 319 332 l 1,54,-1
 355 389 l 1,55,-1
 362 457 l 1,56,-1
 366 524 l 1,57,-1
 344 586 l 1,58,-1
 293 623 l 1,59,-1
 230 636 l 1,60,-1
 157 634 l 1,61,-1
 93 619 l 1,62,-1
 63 575 l 1,63,-1
 63 517 l 1,64,-1
 63 517 l 1,65,-1
 63 575 l 1,66,-1
 63 575 l 1,67,-1
 93 619 l 1,68,-1
 93 619 l 1,69,-1
 157 634 l 1,70,-1
 157 634 l 1,71,-1
 230 636 l 1,0,-1
EndSplineSet
EndChar

StartChar: four
Encoding: 52 52 20
Width: 453
GlyphClass: 2
Flags: W
LayerCount: 2
Fore
SplineSet
205 598 m 1,0,-1
 205 598 l 1,1,-1
 45 179 l 1,2,-1
 295 182 l 1,3,-1
 295 188 l 1,4,-1
 295 377 l 1,5,-1
 295 377 l 1,6,-1
 295 182 l 1,7,-1
 295 182 l 1,8,-1
 408 182 l 1,9,-1
 408 182 l 1,10,-1
 295 182 l 1,11,-1
 295 0 l 1,12,-1
 295 0 l 1,13,-1
 295 182 l 1,14,-1
 45 179 l 1,15,-1
 45 179 l 1,16,-1
 205 598 l 1,0,-1
EndSplineSet
EndChar

StartChar: five
Encoding: 53 53 21
Width: 362
GlyphClass: 2
Flags: W
LayerCount: 2
Fore
SplineSet
45 602 m 1,0,-1
 311 600 l 1,1,-1
 311 600 l 1,2,-1
 45 602 l 1,3,-1
 45 230 l 1,4,-1
 126 266 l 1,5,-1
 126 266 l 1,6,-1
 211 269 l 1,7,-1
 211 269 l 1,8,-1
 286 238 l 1,9,-1
 286 238 l 1,10,-1
 318 172 l 1,11,-1
 318 172 l 1,12,-1
 311 97 l 1,13,-1
 311 97 l 1,14,-1
 283 38 l 1,15,-1
 283 38 l 1,16,-1
 234 -4 l 1,17,-1
 234 -4 l 1,18,-1
 148 -16 l 1,19,-1
 109 -14 l 1,20,-1
 109 -14 l 1,21,-1
 80 -3 l 1,22,-1
 80 -3 l 1,23,-1
 57 17 l 1,24,-1
 57 17 l 1,25,-1
 45 43 l 1,26,-1
 45 43 l 1,27,-1
 57 17 l 1,28,-1
 80 -3 l 1,29,-1
 109 -14 l 1,30,-1
 148 -16 l 1,31,-1
 234 -4 l 1,32,-1
 283 38 l 1,33,-1
 311 97 l 1,34,-1
 318 172 l 1,35,-1
 286 238 l 1,36,-1
 211 269 l 1,37,-1
 126 266 l 1,38,-1
 45 230 l 1,39,-1
 45 230 l 1,40,-1
 45 602 l 1,41,-1
 45 602 l 1,0,-1
EndSplineSet
EndChar

StartChar: six
Encoding: 54 54 22
Width: 418
GlyphClass: 2
Flags: W
LayerCount: 2
Fore
SplineSet
340 615 m 1,0,-1
 340 615 l 1,1,-1
 238 511 l 1,2,-1
 136 405 l 1,3,-1
 77 286 l 1,4,-1
 77 286 l 1,5,-1
 204 318 l 1,6,-1
 204 318 l 1,7,-1
 270 310 l 1,8,-1
 270 310 l 1,9,-1
 344 274 l 1,10,-1
 344 274 l 1,11,-1
 373 198 l 1,12,-1
 373 198 l 1,13,-1
 372 100 l 1,14,-1
 372 100 l 1,15,-1
 330 36 l 1,16,-1
 330 36 l 1,17,-1
 266 9 l 1,18,-1
 266 9 l 1,19,-1
 197 -6 l 1,20,-1
 197 -6 l 1,21,-1
 129 10 l 1,22,-1
 129 10 l 1,23,-1
 72 45 l 1,24,-1
 72 45 l 1,25,-1
 45 117 l 1,26,-1
 45 117 l 1,27,-1
 46 204 l 1,28,-1
 46 204 l 1,29,-1
 77 286 l 1,30,-1
 136 405 l 1,31,-1
 137 406 l 1,32,-1
 238 511 l 1,33,-1
 340 615 l 1,0,-1
204 318 m 1,34,-1
 77 286 l 1,35,-1
 46 204 l 1,36,-1
 45 117 l 1,37,-1
 72 45 l 1,38,-1
 129 10 l 1,39,-1
 197 -6 l 1,40,-1
 266 9 l 1,41,-1
 330 36 l 1,42,-1
 372 100 l 1,43,-1
 373 198 l 1,44,-1
 344 274 l 1,45,-1
 270 310 l 1,46,-1
 204 318 l 1,34,-1
EndSplineSet
EndChar

StartChar: seven
Encoding: 55 55 23
Width: 444
GlyphClass: 2
Flags: W
LayerCount: 2
Fore
SplineSet
45 607 m 1,0,-1
 395 607 l 1,1,-1
 395 607 l 1,2,-1
 125 5 l 1,3,-1
 125 5 l 1,4,-1
 395 607 l 1,5,-1
 45 607 l 1,6,-1
 45 607 l 1,0,-1
EndSplineSet
EndChar

StartChar: eight
Encoding: 56 56 24
Width: 427
GlyphClass: 2
Flags: W
LayerCount: 2
Fore
SplineSet
215 617 m 1,0,-1
 216 617 l 1,1,-1
 281 611 l 1,2,-1
 281 611 l 1,3,-1
 339 586 l 1,4,-1
 339 586 l 1,5,-1
 361 521 l 1,6,-1
 361 521 l 1,7,-1
 357 454 l 1,8,-1
 357 454 l 1,9,-1
 213 321 l 1,10,-1
 213 321 l 1,11,-1
 380 169 l 1,12,-1
 380 169 l 1,13,-1
 378 95 l 1,14,-1
 378 95 l 1,15,-1
 351 26 l 1,16,-1
 351 26 l 1,17,-1
 289 -5 l 1,18,-1
 289 -5 l 1,19,-1
 214 -16 l 1,20,-1
 214 -16 l 1,21,-1
 141 -4 l 1,22,-1
 141 -4 l 1,23,-1
 80 23 l 1,24,-1
 80 23 l 1,25,-1
 50 95 l 1,26,-1
 50 95 l 1,27,-1
 46 169 l 1,28,-1
 46 169 l 1,29,-1
 213 321 l 1,30,-1
 213 321 l 1,31,-1
 65 458 l 1,32,-1
 65 458 l 1,33,-1
 65 523 l 1,34,-1
 65 523 l 1,35,-1
 91 589 l 1,36,-1
 91 589 l 1,37,-1
 144 611 l 1,38,-1
 145 611 l 1,39,-1
 215 617 l 1,0,-1
215 617 m 1,40,-1
 144 611 l 1,41,-1
 91 589 l 1,42,-1
 65 523 l 1,43,-1
 65 458 l 1,44,-1
 213 321 l 1,45,-1
 357 454 l 1,46,-1
 361 521 l 1,47,-1
 339 586 l 1,48,-1
 281 611 l 1,49,-1
 215 617 l 1,40,-1
213 321 m 1,50,-1
 213 321 l 1,51,-1
 46 169 l 1,52,-1
 50 95 l 1,53,-1
 80 23 l 1,54,-1
 141 -4 l 1,55,-1
 214 -16 l 1,56,-1
 289 -5 l 1,57,-1
 351 26 l 1,58,-1
 378 95 l 1,59,-1
 380 169 l 1,60,-1
 213 321 l 1,61,-1
 213 321 l 1,50,-1
EndSplineSet
EndChar

StartChar: nine
Encoding: 57 57 25
Width: 418
GlyphClass: 2
Flags: W
LayerCount: 2
Fore
SplineSet
218 617 m 1,0,-1
 218 617 l 1,1,-1
 288 600 l 1,2,-1
 288 600 l 1,3,-1
 347 563 l 1,4,-1
 347 563 l 1,5,-1
 373 493 l 1,6,-1
 373 493 l 1,7,-1
 371 406 l 1,8,-1
 371 406 l 1,9,-1
 334 311 l 1,10,-1
 334 311 l 1,11,-1
 281 204 l 1,12,-1
 281 204 l 1,13,-1
 179 100 l 1,14,-1
 78 -5 l 1,15,-1
 78 -5 l 1,16,-1
 179 100 l 1,17,-1
 281 204 l 1,18,-1
 334 311 l 1,19,-1
 343 334 l 1,20,-1
 213 293 l 1,21,-1
 213 293 l 1,22,-1
 148 300 l 1,23,-1
 148 300 l 1,24,-1
 73 336 l 1,25,-1
 73 336 l 1,26,-1
 45 412 l 1,27,-1
 45 412 l 1,28,-1
 46 510 l 1,29,-1
 46 510 l 1,30,-1
 85 573 l 1,31,-1
 85 573 l 1,32,-1
 151 601 l 1,33,-1
 151 601 l 1,34,-1
 218 617 l 1,0,-1
218 617 m 1,35,-1
 151 601 l 1,36,-1
 85 573 l 1,37,-1
 46 510 l 1,38,-1
 45 412 l 1,39,-1
 73 336 l 1,40,-1
 148 300 l 1,41,-1
 213 293 l 1,42,-1
 343 334 l 1,43,-1
 371 406 l 1,44,-1
 373 493 l 1,45,-1
 347 563 l 1,46,-1
 288 600 l 1,47,-1
 218 617 l 1,35,-1
EndSplineSet
EndChar

StartChar: colon
Encoding: 58 58 26
Width: 228
GlyphClass: 2
Flags: W
LayerCount: 2
Fore
SplineSet
102 100 m 1,0,-1
 102 100 l 1,1,-1
 123 99 l 1,2,-1
 123 99 l 1,3,-1
 146 90 l 1,4,-1
 146 90 l 1,5,-1
 158 67 l 1,6,-1
 158 67 l 1,7,-1
 160 45 l 1,8,-1
 160 45 l 1,9,-1
 158 23 l 1,10,-1
 158 23 l 1,11,-1
 148 2 l 1,12,-1
 148 2 l 1,13,-1
 125 -10 l 1,14,-1
 125 -10 l 1,15,-1
 102 -12 l 1,16,-1
 102 -12 l 1,17,-1
 82 -11 l 1,18,-1
 82 -11 l 1,19,-1
 57 2 l 1,20,-1
 57 2 l 1,21,-1
 48 23 l 1,22,-1
 48 23 l 1,23,-1
 46 46 l 1,24,-1
 46 46 l 1,25,-1
 47 65 l 1,26,-1
 47 65 l 1,27,-1
 57 87 l 1,28,-1
 57 87 l 1,29,-1
 80 98 l 1,30,-1
 80 98 l 1,31,-1
 102 100 l 1,0,-1
102 100 m 1,32,-1
 80 98 l 1,33,-1
 57 87 l 1,34,-1
 47 65 l 1,35,-1
 46 46 l 1,36,-1
 48 23 l 1,37,-1
 57 2 l 1,38,-1
 82 -11 l 1,39,-1
 102 -12 l 1,40,-1
 125 -10 l 1,41,-1
 148 2 l 1,42,-1
 158 23 l 1,43,-1
 160 45 l 1,44,-1
 158 67 l 1,45,-1
 146 90 l 1,46,-1
 123 99 l 1,47,-1
 102 100 l 1,32,-1
100 453 m 1,48,-1
 100 453 l 1,49,-1
 121 452 l 1,50,-1
 121 452 l 1,51,-1
 144 443 l 1,52,-1
 144 443 l 1,53,-1
 156 420 l 1,54,-1
 156 420 l 1,55,-1
 158 398 l 1,56,-1
 158 398 l 1,57,-1
 156 376 l 1,58,-1
 156 376 l 1,59,-1
 146 355 l 1,60,-1
 146 355 l 1,61,-1
 123 343 l 1,62,-1
 123 343 l 1,63,-1
 100 341 l 1,64,-1
 100 341 l 1,65,-1
 80 342 l 1,66,-1
 80 342 l 1,67,-1
 55 355 l 1,68,-1
 55 355 l 1,69,-1
 46 376 l 1,70,-1
 46 376 l 1,71,-1
 44 399 l 1,72,-1
 44 399 l 1,73,-1
 45 418 l 1,74,-1
 45 418 l 1,75,-1
 55 440 l 1,76,-1
 55 440 l 1,77,-1
 78 451 l 1,78,-1
 78 451 l 1,79,-1
 100 453 l 1,48,-1
100 453 m 1,80,-1
 78 451 l 1,81,-1
 55 440 l 1,82,-1
 45 418 l 1,83,-1
 44 399 l 1,84,-1
 46 376 l 1,85,-1
 55 355 l 1,86,-1
 80 342 l 1,87,-1
 100 341 l 1,88,-1
 123 343 l 1,89,-1
 146 355 l 1,90,-1
 156 376 l 1,91,-1
 158 398 l 1,92,-1
 156 420 l 1,93,-1
 144 443 l 1,94,-1
 121 452 l 1,95,-1
 100 453 l 1,80,-1
EndSplineSet
EndChar

StartChar: semicolon
Encoding: 59 59 27
Width: 228
GlyphClass: 2
Flags: W
LayerCount: 2
Fore
SplineSet
103 453 m 1,0,-1
 103 453 l 1,1,-1
 124 452 l 1,2,-1
 124 452 l 1,3,-1
 147 443 l 1,4,-1
 147 443 l 1,5,-1
 159 420 l 1,6,-1
 159 420 l 1,7,-1
 161 398 l 1,8,-1
 161 398 l 1,9,-1
 159 376 l 1,10,-1
 159 376 l 1,11,-1
 149 355 l 1,12,-1
 149 355 l 1,13,-1
 126 343 l 1,14,-1
 126 343 l 1,15,-1
 103 341 l 1,16,-1
 103 341 l 1,17,-1
 83 342 l 1,18,-1
 83 342 l 1,19,-1
 58 355 l 1,20,-1
 58 355 l 1,21,-1
 49 376 l 1,22,-1
 49 376 l 1,23,-1
 47 399 l 1,24,-1
 47 399 l 1,25,-1
 48 418 l 1,26,-1
 48 418 l 1,27,-1
 58 440 l 1,28,-1
 58 440 l 1,29,-1
 81 451 l 1,30,-1
 81 451 l 1,31,-1
 103 453 l 1,0,-1
103 453 m 1,32,-1
 81 451 l 1,33,-1
 58 440 l 1,34,-1
 48 418 l 1,35,-1
 47 399 l 1,36,-1
 49 376 l 1,37,-1
 58 355 l 1,38,-1
 83 342 l 1,39,-1
 103 341 l 1,40,-1
 126 343 l 1,41,-1
 149 355 l 1,42,-1
 159 376 l 1,43,-1
 161 398 l 1,44,-1
 159 420 l 1,45,-1
 147 443 l 1,46,-1
 124 452 l 1,47,-1
 103 453 l 1,32,-1
120 52 m 1,48,-1
 120 52 l 1,49,-1
 118 1 l 1,50,-1
 112 -49 l 1,51,-1
 112 -49 l 1,52,-1
 91 -108 l 1,53,-1
 91 -108 l 1,54,-1
 66 -147 l 1,55,-1
 66 -147 l 1,56,-1
 91 -108 l 1,57,-1
 112 -49 l 1,58,-1
 118 1 l 1,59,-1
 120 52 l 1,48,-1
EndSplineSet
EndChar

StartChar: less
Encoding: 60 60 28
Width: 433
GlyphClass: 2
Flags: W
LayerCount: 2
Fore
SplineSet
384 462 m 1,0,-1
 384 462 l 1,1,-1
 45 299 l 1,2,-1
 382 133 l 1,3,-1
 382 133 l 1,4,-1
 45 299 l 1,5,-1
 45 299 l 1,6,-1
 384 462 l 1,0,-1
EndSplineSet
EndChar

StartChar: equal
Encoding: 61 61 29
Width: 429
GlyphClass: 2
Flags: W
LayerCount: 2
Fore
SplineSet
45 372 m 1,0,-1
 384 372 l 1,1,-1
 384 372 l 1,2,-1
 45 372 l 1,3,-1
 45 372 l 1,0,-1
45 198 m 1,4,-1
 384 198 l 1,5,-1
 384 198 l 1,6,-1
 45 198 l 1,7,-1
 45 198 l 1,4,-1
EndSplineSet
EndChar

StartChar: greater
Encoding: 62 62 30
Width: 433
GlyphClass: 2
Flags: W
LayerCount: 2
Fore
SplineSet
49 462 m 1,0,-1
 388 300 l 1,1,-1
 388 300 l 1,2,-1
 51 133 l 1,3,-1
 51 133 l 1,4,-1
 388 300 l 1,5,-1
 49 462 l 1,6,-1
 49 462 l 1,0,-1
EndSplineSet
EndChar

StartChar: question
Encoding: 63 63 31
Width: 378
GlyphClass: 2
Flags: W
LayerCount: 2
Fore
SplineSet
166 101 m 1,0,-1
 166 101 l 1,1,-1
 187 100 l 1,2,-1
 187 100 l 1,3,-1
 210 91 l 1,4,-1
 210 91 l 1,5,-1
 222 68 l 1,6,-1
 222 68 l 1,7,-1
 224 46 l 1,8,-1
 224 46 l 1,9,-1
 222 24 l 1,10,-1
 222 24 l 1,11,-1
 212 3 l 1,12,-1
 212 3 l 1,13,-1
 189 -9 l 1,14,-1
 189 -9 l 1,15,-1
 166 -11 l 1,16,-1
 166 -11 l 1,17,-1
 146 -10 l 1,18,-1
 146 -10 l 1,19,-1
 121 3 l 1,20,-1
 121 3 l 1,21,-1
 112 24 l 1,22,-1
 112 24 l 1,23,-1
 110 47 l 1,24,-1
 110 47 l 1,25,-1
 111 66 l 1,26,-1
 111 66 l 1,27,-1
 121 88 l 1,28,-1
 121 88 l 1,29,-1
 144 99 l 1,30,-1
 144 99 l 1,31,-1
 166 101 l 1,0,-1
166 101 m 1,32,-1
 144 99 l 1,33,-1
 121 88 l 1,34,-1
 111 66 l 1,35,-1
 110 47 l 1,36,-1
 112 24 l 1,37,-1
 121 3 l 1,38,-1
 146 -10 l 1,39,-1
 166 -11 l 1,40,-1
 189 -9 l 1,41,-1
 212 3 l 1,42,-1
 222 24 l 1,43,-1
 224 46 l 1,44,-1
 222 68 l 1,45,-1
 210 91 l 1,46,-1
 187 100 l 1,47,-1
 166 101 l 1,32,-1
180 626 m 1,48,-1
 180 626 l 1,49,-1
 214 622 l 1,50,-1
 251 614 l 1,51,-1
 251 614 l 1,52,-1
 280 598 l 1,53,-1
 280 598 l 1,54,-1
 303 576 l 1,55,-1
 303 576 l 1,56,-1
 317 547 l 1,57,-1
 317 547 l 1,58,-1
 323 490 l 1,59,-1
 323 490 l 1,60,-1
 319 425 l 1,61,-1
 319 425 l 1,62,-1
 301 380 l 1,63,-1
 301 380 l 1,64,-1
 249 326 l 1,65,-1
 249 326 l 1,66,-1
 177 282 l 1,67,-1
 177 207 l 1,68,-1
 177 207 l 1,69,-1
 177 282 l 1,70,-1
 177 282 l 1,71,-1
 249 326 l 1,72,-1
 301 380 l 1,73,-1
 319 425 l 1,74,-1
 323 490 l 1,75,-1
 317 547 l 1,76,-1
 303 576 l 1,77,-1
 280 598 l 1,78,-1
 251 614 l 1,79,-1
 214 622 l 1,80,-1
 180 626 l 1,81,-1
 147 622 l 1,82,-1
 104 609 l 1,83,-1
 77 584 l 1,84,-1
 60 559 l 1,85,-1
 55 522 l 1,86,-1
 55 522 l 1,87,-1
 60 559 l 1,88,-1
 60 559 l 1,89,-1
 77 584 l 1,90,-1
 77 584 l 1,91,-1
 104 609 l 1,92,-1
 104 609 l 1,93,-1
 147 622 l 1,94,-1
 147 622 l 1,95,-1
 180 626 l 1,48,-1
EndSplineSet
EndChar

StartChar: at
Encoding: 64 64 32
Width: 874
GlyphClass: 2
Flags: W
LayerCount: 2
Fore
SplineSet
459 628 m 1,0,-1
 570 613 l 1,1,-1
 570 613 l 1,2,-1
 682 574 l 1,3,-1
 682 574 l 1,4,-1
 751 508 l 1,5,-1
 751 508 l 1,6,-1
 805 422 l 1,7,-1
 805 422 l 1,8,-1
 819 320 l 1,9,-1
 819 320 l 1,10,-1
 805 194 l 1,11,-1
 805 194 l 1,12,-1
 777 89 l 1,13,-1
 777 89 l 1,14,-1
 686 36 l 1,15,-1
 686 36 l 1,16,-1
 562 46 l 1,17,-1
 562 46 l 1,18,-1
 437 78 l 1,19,-1
 437 78 l 1,20,-1
 319 133 l 1,21,-1
 319 133 l 1,22,-1
 288 238 l 1,23,-1
 288 238 l 1,24,-1
 307 330 l 1,25,-1
 307 330 l 1,26,-1
 377 377 l 1,27,-1
 377 377 l 1,28,-1
 471 423 l 1,29,-1
 471 423 l 1,30,-1
 560 419 l 1,31,-1
 560 419 l 1,32,-1
 560 130 l 1,33,-1
 560 130 l 1,34,-1
 560 419 l 1,35,-1
 471 423 l 1,36,-1
 377 377 l 1,37,-1
 307 330 l 1,38,-1
 288 238 l 1,39,-1
 319 133 l 1,40,-1
 437 78 l 1,41,-1
 562 46 l 1,42,-1
 686 36 l 1,43,-1
 777 89 l 1,44,-1
 805 194 l 1,45,-1
 819 320 l 1,46,-1
 805 422 l 1,47,-1
 751 508 l 1,48,-1
 682 574 l 1,49,-1
 570 613 l 1,50,-1
 459 628 l 1,51,-1
 314 595 l 1,52,-1
 198 512 l 1,53,-1
 114 386 l 1,54,-1
 55 237 l 1,55,-1
 80 103 l 1,56,-1
 168 -21 l 1,57,-1
 262 -115 l 1,58,-1
 379 -180 l 1,59,-1
 470 -205 l 1,60,-1
 560 -201 l 1,61,-1
 622 -177 l 1,62,-1
 639 -125 l 1,63,-1
 639 -125 l 1,64,-1
 622 -177 l 1,65,-1
 622 -177 l 1,66,-1
 560 -201 l 1,67,-1
 560 -201 l 1,68,-1
 470 -205 l 1,69,-1
 470 -205 l 1,70,-1
 379 -180 l 1,71,-1
 379 -180 l 1,72,-1
 262 -115 l 1,73,-1
 262 -115 l 1,74,-1
 168 -21 l 1,75,-1
 168 -21 l 1,76,-1
 80 103 l 1,77,-1
 80 103 l 1,78,-1
 55 237 l 1,79,-1
 55 237 l 1,80,-1
 114 386 l 1,81,-1
 198 512 l 1,82,-1
 198 512 l 1,83,-1
 314 595 l 1,84,-1
 314 595 l 1,85,-1
 459 628 l 1,86,-1
 459 628 l 1,0,-1
EndSplineSet
EndChar

StartChar: A
Encoding: 65 65 33
Width: 520
GlyphClass: 2
Flags: W
LayerCount: 2
Fore
SplineSet
261 604 m 1,0,-1
 261 604 l 1,1,-1
 465 -2 l 1,2,-1
 465 -2 l 1,3,-1
 399 195 l 1,4,-1
 121 195 l 1,5,-1
 54 -2 l 1,6,-1
 54 -2 l 1,7,-1
 261 604 l 1,0,-1
261 604 m 1,8,-1
 121 195 l 1,9,-1
 399 195 l 1,10,-1
 261 604 l 1,8,-1
EndSplineSet
EndChar

StartChar: B
Encoding: 66 66 34
Width: 417
GlyphClass: 2
Flags: W
LayerCount: 2
Fore
SplineSet
55 581 m 1,0,-1
 128 580 l 1,1,-1
 128 580 l 1,2,-1
 200 566 l 1,3,-1
 200 566 l 1,4,-1
 285 525 l 1,5,-1
 285 525 l 1,6,-1
 324 454 l 1,7,-1
 324 454 l 1,8,-1
 310 370 l 1,9,-1
 310 370 l 1,10,-1
 260 326 l 1,11,-1
 260 326 l 1,12,-1
 166 289 l 1,13,-1
 254 272 l 1,14,-1
 254 272 l 1,15,-1
 321 238 l 1,16,-1
 321 238 l 1,17,-1
 361 165 l 1,18,-1
 361 165 l 1,19,-1
 349 85 l 1,20,-1
 349 85 l 1,21,-1
 307 37 l 1,22,-1
 307 37 l 1,23,-1
 234 5 l 1,24,-1
 234 5 l 1,25,-1
 55 5 l 1,26,-1
 55 5 l 1,27,-1
 55 581 l 1,28,-1
 55 581 l 1,0,-1
55 581 m 1,29,-1
 55 5 l 1,30,-1
 234 5 l 1,31,-1
 307 37 l 1,32,-1
 349 85 l 1,33,-1
 361 165 l 1,34,-1
 321 238 l 1,35,-1
 254 272 l 1,36,-1
 166 289 l 1,37,-1
 166 289 l 1,38,-1
 260 326 l 1,39,-1
 310 370 l 1,40,-1
 324 454 l 1,41,-1
 285 525 l 1,42,-1
 200 566 l 1,43,-1
 128 580 l 1,44,-1
 55 581 l 1,29,-1
EndSplineSet
EndChar

StartChar: C
Encoding: 67 67 35
Width: 498
GlyphClass: 2
Flags: W
LayerCount: 2
Fore
SplineSet
276 579 m 1,0,-1
 276 579 l 1,1,-1
 370 566 l 1,2,-1
 370 566 l 1,3,-1
 449 530 l 1,4,-1
 449 530 l 1,5,-1
 370 566 l 1,6,-1
 276 579 l 1,7,-1
 175 564 l 1,8,-1
 108 505 l 1,9,-1
 68 420 l 1,10,-1
 55 292 l 1,11,-1
 64 167 l 1,12,-1
 101 80 l 1,13,-1
 172 23 l 1,14,-1
 276 7 l 1,15,-1
 377 21 l 1,16,-1
 449 57 l 1,17,-1
 449 57 l 1,18,-1
 377 21 l 1,19,-1
 377 21 l 1,20,-1
 276 7 l 1,21,-1
 276 7 l 1,22,-1
 172 23 l 1,23,-1
 172 23 l 1,24,-1
 101 80 l 1,25,-1
 101 80 l 1,26,-1
 64 167 l 1,27,-1
 64 167 l 1,28,-1
 55 292 l 1,29,-1
 55 292 l 1,30,-1
 68 420 l 1,31,-1
 68 420 l 1,32,-1
 108 505 l 1,33,-1
 108 505 l 1,34,-1
 175 564 l 1,35,-1
 175 564 l 1,36,-1
 276 579 l 1,0,-1
EndSplineSet
EndChar

StartChar: D
Encoding: 68 68 36
Width: 448
GlyphClass: 2
Flags: W
LayerCount: 2
Fore
SplineSet
55 581 m 1,0,-1
 153 574 l 1,1,-1
 153 574 l 1,2,-1
 268 535 l 1,3,-1
 268 535 l 1,4,-1
 349 463 l 1,5,-1
 349 463 l 1,6,-1
 378 405 l 1,7,-1
 378 405 l 1,8,-1
 393 322 l 1,9,-1
 393 322 l 1,10,-1
 383 171 l 1,11,-1
 383 171 l 1,12,-1
 335 85 l 1,13,-1
 335 85 l 1,14,-1
 255 24 l 1,15,-1
 255 24 l 1,16,-1
 155 11 l 1,17,-1
 55 5 l 1,18,-1
 55 5 l 1,19,-1
 55 581 l 1,20,-1
 55 581 l 1,0,-1
55 581 m 1,21,-1
 55 5 l 1,22,-1
 155 11 l 1,23,-1
 255 24 l 1,24,-1
 335 85 l 1,25,-1
 383 171 l 1,26,-1
 393 322 l 1,27,-1
 378 405 l 1,28,-1
 350 462 l 1,29,-1
 268 535 l 1,30,-1
 153 574 l 1,31,-1
 55 581 l 1,21,-1
EndSplineSet
EndChar

StartChar: E
Encoding: 69 69 37
Width: 392
GlyphClass: 2
Flags: W
LayerCount: 2
Fore
SplineSet
55 582 m 1,0,-1
 340 582 l 1,1,-1
 340 582 l 1,2,-1
 55 582 l 1,3,-1
 55 299 l 1,4,-1
 261 299 l 1,5,-1
 261 299 l 1,6,-1
 55 299 l 1,7,-1
 55 5 l 1,8,-1
 347 5 l 1,9,-1
 347 5 l 1,10,-1
 55 5 l 1,11,-1
 55 5 l 1,12,-1
 55 582 l 1,13,-1
 55 582 l 1,0,-1
EndSplineSet
EndChar

StartChar: F
Encoding: 70 70 38
Width: 385
GlyphClass: 2
Flags: W
LayerCount: 2
Fore
SplineSet
55 582 m 1,0,-1
 340 582 l 1,1,-1
 340 582 l 1,2,-1
 55 582 l 1,3,-1
 55 299 l 1,4,-1
 245 299 l 1,5,-1
 245 299 l 1,6,-1
 55 299 l 1,7,-1
 55 0 l 1,8,-1
 55 0 l 1,9,-1
 55 582 l 1,10,-1
 55 582 l 1,0,-1
EndSplineSet
EndChar

StartChar: G
Encoding: 71 71 39
Width: 501
GlyphClass: 2
Flags: W
LayerCount: 2
Fore
SplineSet
276 607 m 1,0,-1
 276 607 l 1,1,-1
 363 603 l 1,2,-1
 450 583 l 1,3,-1
 450 583 l 1,4,-1
 363 603 l 1,5,-1
 276 607 l 1,6,-1
 189 603 l 1,7,-1
 112 554 l 1,8,-1
 66 451 l 1,9,-1
 55 294 l 1,10,-1
 66 136 l 1,11,-1
 111 43 l 1,12,-1
 189 -16 l 1,13,-1
 276 -20 l 1,14,-1
 363 -16 l 1,15,-1
 446 4 l 1,16,-1
 446 224 l 1,17,-1
 268 224 l 1,18,-1
 268 224 l 1,19,-1
 446 224 l 1,20,-1
 446 224 l 1,21,-1
 446 4 l 1,22,-1
 446 4 l 1,23,-1
 363 -16 l 1,24,-1
 363 -16 l 1,25,-1
 276 -20 l 1,26,-1
 276 -20 l 1,27,-1
 189 -16 l 1,28,-1
 189 -16 l 1,29,-1
 111 43 l 1,30,-1
 111 43 l 1,31,-1
 66 136 l 1,32,-1
 66 136 l 1,33,-1
 55 294 l 1,34,-1
 55 294 l 1,35,-1
 66 451 l 1,36,-1
 66 451 l 1,37,-1
 112 554 l 1,38,-1
 112 554 l 1,39,-1
 189 603 l 1,40,-1
 189 603 l 1,41,-1
 276 607 l 1,0,-1
EndSplineSet
EndChar

StartChar: H
Encoding: 72 72 40
Width: 440
GlyphClass: 2
Flags: W
LayerCount: 2
Fore
SplineSet
55 586 m 1,0,-1
 55 586 l 1,1,-1
 55 299 l 1,2,-1
 385 299 l 1,3,-1
 385 586 l 1,4,-1
 385 586 l 1,5,-1
 385 0 l 1,6,-1
 385 0 l 1,7,-1
 385 299 l 1,8,-1
 55 299 l 1,9,-1
 55 0 l 1,10,-1
 55 0 l 1,11,-1
 55 586 l 1,0,-1
EndSplineSet
EndChar

StartChar: I
Encoding: 73 73 41
Width: 100
GlyphClass: 2
Flags: W
LayerCount: 2
Fore
SplineSet
45 586 m 1,0,-1
 45 586 l 1,1,-1
 45 0 l 1,2,-1
 45 0 l 1,3,-1
 45 586 l 1,0,-1
EndSplineSet
EndChar

StartChar: J
Encoding: 74 74 42
Width: 219
GlyphClass: 2
Flags: W
LayerCount: 2
Fore
SplineSet
164 586 m 1,0,-1
 164 586 l 1,1,-1
 164 1 l 1,2,-1
 164 1 l 1,3,-1
 154 -41 l 1,4,-1
 154 -41 l 1,5,-1
 129 -67 l 1,6,-1
 129 -67 l 1,7,-1
 95 -85 l 1,8,-1
 95 -85 l 1,9,-1
 45 -88 l 1,10,-1
 45 -88 l 1,11,-1
 95 -85 l 1,12,-1
 129 -67 l 1,13,-1
 154 -41 l 1,14,-1
 164 1 l 1,15,-1
 164 586 l 1,0,-1
EndSplineSet
EndChar

StartChar: K
Encoding: 75 75 43
Width: 404
GlyphClass: 2
Flags: W
LayerCount: 2
Fore
SplineSet
55 586 m 1,0,-1
 55 586 l 1,1,-1
 55 0 l 1,2,-1
 55 0 l 1,3,-1
 55 586 l 1,0,-1
359 583 m 1,4,-1
 359 583 l 1,5,-1
 328 440 l 1,6,-1
 328 440 l 1,7,-1
 270 364 l 1,8,-1
 269 363 l 1,9,-1
 183 314 l 1,10,-1
 182 314 l 1,11,-1
 110 287 l 1,12,-1
 186 256 l 1,13,-1
 187 255 l 1,14,-1
 264 200 l 1,15,-1
 265 199 l 1,16,-1
 320 118 l 1,17,-1
 321 117 l 1,18,-1
 358 2 l 1,19,-1
 358 2 l 1,20,-1
 321 117 l 1,21,-1
 264 200 l 1,22,-1
 186 256 l 1,23,-1
 110 287 l 1,24,-1
 110 287 l 1,25,-1
 183 314 l 1,26,-1
 270 364 l 1,27,-1
 328 440 l 1,28,-1
 359 583 l 1,4,-1
EndSplineSet
EndChar

StartChar: L
Encoding: 76 76 44
Width: 386
GlyphClass: 2
Flags: W
LayerCount: 2
Fore
SplineSet
55 586 m 1,0,-1
 55 586 l 1,1,-1
 55 5 l 1,2,-1
 341 5 l 1,3,-1
 341 5 l 1,4,-1
 55 5 l 1,5,-1
 55 5 l 1,6,-1
 55 586 l 1,0,-1
EndSplineSet
EndChar

StartChar: M
Encoding: 77 77 45
Width: 625
GlyphClass: 2
Flags: W
LayerCount: 2
Fore
SplineSet
123 601 m 1,0,-1
 317 178 l 1,1,-1
 504 600 l 1,2,-1
 504 600 l 1,3,-1
 570 0 l 1,4,-1
 570 0 l 1,5,-1
 504 600 l 1,6,-1
 317 178 l 1,7,-1
 317 178 l 1,8,-1
 123 601 l 1,9,-1
 55 0 l 1,10,-1
 55 0 l 1,11,-1
 123 601 l 1,12,-1
 123 601 l 1,0,-1
EndSplineSet
EndChar

StartChar: N
Encoding: 78 78 46
Width: 451
GlyphClass: 2
Flags: W
LayerCount: 2
Fore
SplineSet
55 601 m 1,0,-1
 221 308 l 1,1,-1
 397 -2 l 1,2,-1
 396 620 l 1,3,-1
 396 620 l 1,4,-1
 397 -2 l 1,5,-1
 397 -2 l 1,6,-1
 221 308 l 1,7,-1
 55 601 l 1,8,-1
 55 0 l 1,9,-1
 55 0 l 1,10,-1
 55 601 l 1,11,-1
 55 601 l 1,0,-1
EndSplineSet
EndChar

StartChar: O
Encoding: 79 79 47
Width: 615
GlyphClass: 2
Flags: W
LayerCount: 2
Fore
SplineSet
312 594 m 1,0,-1
 312 594 l 1,1,-1
 415 568 l 1,2,-1
 415 568 l 1,3,-1
 492 507 l 1,4,-1
 492 507 l 1,5,-1
 537 412 l 1,6,-1
 537 412 l 1,7,-1
 560 293 l 1,8,-1
 560 293 l 1,9,-1
 537 175 l 1,10,-1
 537 175 l 1,11,-1
 490 82 l 1,12,-1
 490 82 l 1,13,-1
 413 18 l 1,14,-1
 413 18 l 1,15,-1
 312 -6 l 1,16,-1
 312 -6 l 1,17,-1
 209 18 l 1,18,-1
 209 18 l 1,19,-1
 129 80 l 1,20,-1
 129 80 l 1,21,-1
 80 177 l 1,22,-1
 80 177 l 1,23,-1
 55 293 l 1,24,-1
 55 293 l 1,25,-1
 80 408 l 1,26,-1
 80 408 l 1,27,-1
 129 509 l 1,28,-1
 129 509 l 1,29,-1
 209 570 l 1,30,-1
 209 570 l 1,31,-1
 312 594 l 1,0,-1
312 594 m 1,32,-1
 209 570 l 1,33,-1
 129 509 l 1,34,-1
 80 408 l 1,35,-1
 55 293 l 1,36,-1
 80 177 l 1,37,-1
 129 80 l 1,38,-1
 209 18 l 1,39,-1
 312 -6 l 1,40,-1
 413 18 l 1,41,-1
 490 82 l 1,42,-1
 537 175 l 1,43,-1
 560 293 l 1,44,-1
 537 412 l 1,45,-1
 492 507 l 1,46,-1
 415 568 l 1,47,-1
 312 594 l 1,32,-1
EndSplineSet
EndChar

StartChar: P
Encoding: 80 80 48
Width: 379
GlyphClass: 2
Flags: W
LayerCount: 2
Fore
SplineSet
55 581 m 1,0,-1
 131 579 l 1,1,-1
 131 579 l 1,2,-1
 200 566 l 1,3,-1
 200 566 l 1,4,-1
 286 521 l 1,5,-1
 286 521 l 1,6,-1
 324 454 l 1,7,-1
 324 454 l 1,8,-1
 310 371 l 1,9,-1
 310 371 l 1,10,-1
 255 315 l 1,11,-1
 255 315 l 1,12,-1
 175 297 l 1,13,-1
 175 297 l 1,14,-1
 54 299 l 1,15,-1
 54 299 l 1,16,-1
 175 297 l 1,17,-1
 255 315 l 1,18,-1
 310 371 l 1,19,-1
 324 454 l 1,20,-1
 286 521 l 1,21,-1
 200 566 l 1,22,-1
 131 579 l 1,23,-1
 55 581 l 1,24,-1
 55 0 l 1,25,-1
 55 0 l 1,26,-1
 55 581 l 1,27,-1
 55 581 l 1,0,-1
EndSplineSet
EndChar

StartChar: Q
Encoding: 81 81 49
Width: 615
GlyphClass: 2
Flags: W
LayerCount: 2
Fore
SplineSet
312 594 m 1,0,-1
 312 594 l 1,1,-1
 415 568 l 1,2,-1
 415 568 l 1,3,-1
 492 507 l 1,4,-1
 492 507 l 1,5,-1
 537 412 l 1,6,-1
 537 412 l 1,7,-1
 560 293 l 1,8,-1
 560 293 l 1,9,-1
 537 175 l 1,10,-1
 537 175 l 1,11,-1
 490 82 l 1,12,-1
 490 82 l 1,13,-1
 465 48 l 1,14,-1
 474 38 l 1,15,-1
 521 8 l 1,16,-1
 569 -6 l 1,17,-1
 569 -6 l 1,18,-1
 521 8 l 1,19,-1
 521 8 l 1,20,-1
 474 38 l 1,21,-1
 474 38 l 1,22,-1
 465 48 l 1,23,-1
 413 18 l 1,24,-1
 413 18 l 1,25,-1
 312 -6 l 1,26,-1
 312 -6 l 1,27,-1
 209 18 l 1,28,-1
 209 18 l 1,29,-1
 129 80 l 1,30,-1
 129 80 l 1,31,-1
 80 177 l 1,32,-1
 80 177 l 1,33,-1
 55 293 l 1,34,-1
 55 293 l 1,35,-1
 80 408 l 1,36,-1
 80 408 l 1,37,-1
 129 509 l 1,38,-1
 129 509 l 1,39,-1
 209 570 l 1,40,-1
 209 570 l 1,41,-1
 312 594 l 1,0,-1
312 594 m 1,42,-1
 209 570 l 1,43,-1
 129 509 l 1,44,-1
 80 408 l 1,45,-1
 55 293 l 1,46,-1
 80 177 l 1,47,-1
 129 80 l 1,48,-1
 209 18 l 1,49,-1
 312 -6 l 1,50,-1
 413 18 l 1,51,-1
 465 48 l 1,52,-1
 439 80 l 1,53,-1
 439 80 l 1,54,-1
 422 131 l 1,55,-1
 422 131 l 1,56,-1
 439 80 l 1,57,-1
 465 48 l 1,58,-1
 490 82 l 1,59,-1
 537 175 l 1,60,-1
 560 293 l 1,61,-1
 537 412 l 1,62,-1
 492 507 l 1,63,-1
 415 568 l 1,64,-1
 312 594 l 1,42,-1
EndSplineSet
EndChar

StartChar: R
Encoding: 82 82 50
Width: 402
GlyphClass: 2
Flags: W
LayerCount: 2
Fore
SplineSet
55 581 m 1,0,-1
 132 580 l 1,1,-1
 132 580 l 1,2,-1
 200 566 l 1,3,-1
 200 566 l 1,4,-1
 286 521 l 1,5,-1
 286 521 l 1,6,-1
 324 454 l 1,7,-1
 324 454 l 1,8,-1
 310 370 l 1,9,-1
 310 370 l 1,10,-1
 255 315 l 1,11,-1
 255 315 l 1,12,-1
 175 298 l 1,13,-1
 175 298 l 1,14,-1
 104 289 l 1,15,-1
 350 -3 l 1,16,-1
 350 -3 l 1,17,-1
 104 289 l 1,18,-1
 104 289 l 1,19,-1
 175 298 l 1,20,-1
 255 315 l 1,21,-1
 310 370 l 1,22,-1
 324 454 l 1,23,-1
 286 521 l 1,24,-1
 200 566 l 1,25,-1
 132 580 l 1,26,-1
 55 581 l 1,27,-1
 55 0 l 1,28,-1
 55 0 l 1,29,-1
 55 581 l 1,30,-1
 55 581 l 1,0,-1
EndSplineSet
EndChar

StartChar: S
Encoding: 83 83 51
Width: 410
GlyphClass: 2
Flags: W
LayerCount: 2
Fore
SplineSet
203 591 m 1,0,-1
 261 580 l 1,1,-1
 261 580 l 1,2,-1
 304 554 l 1,3,-1
 304 554 l 1,4,-1
 337 512 l 1,5,-1
 337 512 l 1,6,-1
 356 469 l 1,7,-1
 356 469 l 1,8,-1
 337 512 l 1,9,-1
 304 554 l 1,10,-1
 261 580 l 1,11,-1
 203 591 l 1,12,-1
 145 578 l 1,13,-1
 105 547 l 1,14,-1
 72 504 l 1,15,-1
 56 456 l 1,16,-1
 131 390 l 1,17,-1
 208 321 l 1,18,-1
 286 253 l 1,19,-1
 355 178 l 1,20,-1
 355 178 l 1,21,-1
 349 105 l 1,22,-1
 349 105 l 1,23,-1
 328 39 l 1,24,-1
 328 39 l 1,25,-1
 276 8 l 1,26,-1
 276 8 l 1,27,-1
 203 -4 l 1,28,-1
 203 -4 l 1,29,-1
 147 10 l 1,30,-1
 147 10 l 1,31,-1
 105 39 l 1,32,-1
 105 39 l 1,33,-1
 70 77 l 1,34,-1
 70 77 l 1,35,-1
 55 131 l 1,36,-1
 55 131 l 1,37,-1
 70 77 l 1,38,-1
 105 39 l 1,39,-1
 147 10 l 1,40,-1
 203 -4 l 1,41,-1
 276 8 l 1,42,-1
 328 39 l 1,43,-1
 349 105 l 1,44,-1
 355 178 l 1,45,-1
 286 253 l 1,46,-1
 208 321 l 1,47,-1
 131 390 l 1,48,-1
 56 456 l 1,49,-1
 56 456 l 1,50,-1
 72 504 l 1,51,-1
 72 504 l 1,52,-1
 105 547 l 1,53,-1
 105 547 l 1,54,-1
 145 578 l 1,55,-1
 145 578 l 1,56,-1
 203 591 l 1,57,-1
 203 591 l 1,0,-1
EndSplineSet
EndChar

StartChar: T
Encoding: 84 84 52
Width: 549
GlyphClass: 2
Flags: W
LayerCount: 2
Fore
SplineSet
61 579 m 1,0,-1
 504 579 l 1,1,-1
 504 579 l 1,2,-1
 280 579 l 1,3,-1
 277 0 l 1,4,-1
 277 0 l 1,5,-1
 280 579 l 1,6,-1
 61 579 l 1,7,-1
 61 579 l 1,0,-1
EndSplineSet
EndChar

StartChar: U
Encoding: 85 85 53
Width: 446
GlyphClass: 2
Flags: W
LayerCount: 2
Fore
SplineSet
391 616 m 1,0,-1
 391 616 l 1,1,-1
 391 177 l 1,2,-1
 391 177 l 1,3,-1
 376 104 l 1,4,-1
 376 104 l 1,5,-1
 342 54 l 1,6,-1
 342 54 l 1,7,-1
 293 12 l 1,8,-1
 293 12 l 1,9,-1
 226 -4 l 1,10,-1
 226 -4 l 1,11,-1
 158 12 l 1,12,-1
 158 12 l 1,13,-1
 107 54 l 1,14,-1
 107 54 l 1,15,-1
 72 105 l 1,16,-1
 72 105 l 1,17,-1
 55 177 l 1,18,-1
 55 177 l 1,19,-1
 55 615 l 1,20,-1
 55 615 l 1,21,-1
 55 177 l 1,22,-1
 72 105 l 1,23,-1
 107 54 l 1,24,-1
 158 12 l 1,25,-1
 226 -4 l 1,26,-1
 293 12 l 1,27,-1
 342 54 l 1,28,-1
 376 104 l 1,29,-1
 391 177 l 1,30,-1
 391 616 l 1,0,-1
EndSplineSet
EndChar

StartChar: V
Encoding: 86 86 54
Width: 505
GlyphClass: 2
Flags: W
LayerCount: 2
Fore
SplineSet
451 622 m 1,0,-1
 451 622 l 1,1,-1
 254 16 l 1,2,-1
 254 16 l 1,3,-1
 54 621 l 1,4,-1
 54 621 l 1,5,-1
 254 16 l 1,6,-1
 451 622 l 1,0,-1
EndSplineSet
EndChar

StartChar: W
Encoding: 87 87 55
Width: 718
GlyphClass: 2
Flags: W
LayerCount: 2
Fore
SplineSet
673 609 m 1,0,-1
 673 609 l 1,1,-1
 527 6 l 1,2,-1
 527 6 l 1,3,-1
 357 398 l 1,4,-1
 193 7 l 1,5,-1
 193 7 l 1,6,-1
 55 610 l 1,7,-1
 55 610 l 1,8,-1
 193 7 l 1,9,-1
 357 398 l 1,10,-1
 357 398 l 1,11,-1
 527 6 l 1,12,-1
 673 609 l 1,0,-1
EndSplineSet
EndChar

StartChar: X
Encoding: 88 88 56
Width: 487
GlyphClass: 2
Flags: W
LayerCount: 2
Fore
SplineSet
417 623 m 1,0,-1
 417 623 l 1,1,-1
 243 324 l 1,2,-1
 433 -3 l 1,3,-1
 433 -3 l 1,4,-1
 243 324 l 1,5,-1
 54 -3 l 1,6,-1
 54 -3 l 1,7,-1
 243 324 l 1,8,-1
 72 620 l 1,9,-1
 72 620 l 1,10,-1
 243 324 l 1,11,-1
 417 623 l 1,0,-1
EndSplineSet
EndChar

StartChar: Y
Encoding: 89 89 57
Width: 487
GlyphClass: 2
Flags: W
LayerCount: 2
Fore
SplineSet
433 622 m 1,0,-1
 433 622 l 1,1,-1
 249 248 l 1,2,-1
 249 0 l 1,3,-1
 249 0 l 1,4,-1
 249 248 l 1,5,-1
 54 622 l 1,6,-1
 54 622 l 1,7,-1
 249 248 l 1,8,-1
 433 622 l 1,0,-1
EndSplineSet
EndChar

StartChar: Z
Encoding: 90 90 58
Width: 489
GlyphClass: 2
Flags: W
LayerCount: 2
Fore
SplineSet
419 579 m 1,0,-1
 419 579 l 1,1,-1
 234 295 l 1,2,-1
 41 0 l 1,3,-1
 445 1 l 1,4,-1
 445 1 l 1,5,-1
 41 0 l 1,6,-1
 41 0 l 1,7,-1
 234 295 l 1,8,-1
 419 579 l 1,9,-1
 82 579 l 1,10,-1
 82 579 l 1,11,-1
 419 579 l 1,0,-1
EndSplineSet
EndChar

StartChar: bracketleft
Encoding: 91 91 59
Width: 244
GlyphClass: 2
Flags: W
LayerCount: 2
Fore
SplineSet
55 692 m 1,0,-1
 199 692 l 1,1,-1
 199 692 l 1,2,-1
 55 692 l 1,3,-1
 55 -66 l 1,4,-1
 199 -66 l 1,5,-1
 199 -66 l 1,6,-1
 55 -66 l 1,7,-1
 55 -66 l 1,8,-1
 55 692 l 1,9,-1
 55 692 l 1,0,-1
EndSplineSet
EndChar

StartChar: backslash
Encoding: 92 92 60
Width: 309
GlyphClass: 2
Flags: W
LayerCount: 2
Fore
SplineSet
55 722 m 1,0,-1
 159 319 l 1,1,-1
 264 -84 l 1,2,-1
 264 -84 l 1,3,-1
 159 319 l 1,4,-1
 55 722 l 1,5,-1
 55 722 l 1,0,-1
EndSplineSet
EndChar

StartChar: bracketright
Encoding: 93 93 61
Width: 244
GlyphClass: 2
Flags: W
LayerCount: 2
Fore
SplineSet
45 692 m 1,0,-1
 189 692 l 1,1,-1
 189 692 l 1,2,-1
 189 -66 l 1,3,-1
 189 -66 l 1,4,-1
 45 -66 l 1,5,-1
 45 -66 l 1,6,-1
 189 -66 l 1,7,-1
 189 692 l 1,8,-1
 45 692 l 1,9,-1
 45 692 l 1,0,-1
EndSplineSet
EndChar

StartChar: asciicircum
Encoding: 94 94 62
Width: 421
GlyphClass: 2
Flags: W
LayerCount: 2
Fore
SplineSet
211 746 m 1,0,-1
 211 746 l 1,1,-1
 367 472 l 1,2,-1
 367 472 l 1,3,-1
 211 746 l 1,4,-1
 54 472 l 1,5,-1
 54 472 l 1,6,-1
 211 746 l 1,0,-1
EndSplineSet
EndChar

StartChar: underscore
Encoding: 95 95 63
Width: 527
GlyphClass: 2
Flags: W
LayerCount: 2
Fore
SplineSet
482 -97 m 1,0,-1
 482 -97 l 1,1,-1
 45 -97 l 1,2,-1
 45 -97 l 1,3,-1
 482 -97 l 1,0,-1
EndSplineSet
EndChar

StartChar: grave
Encoding: 96 96 64
Width: 276
GlyphClass: 2
Flags: W
LayerCount: 2
Fore
SplineSet
49 686 m 1,0,-1
 231 600 l 1,1,-1
 231 600 l 1,2,-1
 49 686 l 1,3,-1
 49 686 l 1,0,-1
EndSplineSet
EndChar

StartChar: a
Encoding: 97 97 65
Width: 412
GlyphClass: 2
Flags: W
LayerCount: 2
Fore
SplineSet
214 469 m 1,0,-1
 214 469 l 1,1,-1
 307 451 l 1,2,-1
 307 451 l 1,3,-1
 357 392 l 1,4,-1
 357 392 l 1,5,-1
 357 204 l 1,6,-1
 357 -14 l 1,7,-1
 357 -14 l 1,8,-1
 283 -15 l 1,9,-1
 191 -15 l 1,10,-1
 191 -15 l 1,11,-1
 88 28 l 1,12,-1
 88 28 l 1,13,-1
 45 128 l 1,14,-1
 45 128 l 1,15,-1
 90 215 l 1,16,-1
 90 215 l 1,17,-1
 203 264 l 1,18,-1
 203 264 l 1,19,-1
 310 251 l 1,20,-1
 310 251 l 1,21,-1
 357 204 l 1,22,-1
 357 392 l 1,23,-1
 307 451 l 1,24,-1
 214 469 l 1,25,-1
 137 465 l 1,26,-1
 70 416 l 1,27,-1
 70 416 l 1,28,-1
 137 465 l 1,29,-1
 137 465 l 1,30,-1
 214 469 l 1,0,-1
203 264 m 1,31,-1
 90 215 l 1,32,-1
 45 128 l 1,33,-1
 88 28 l 1,34,-1
 191 -15 l 1,35,-1
 283 -15 l 1,36,-1
 357 -14 l 1,37,-1
 357 204 l 1,38,-1
 310 251 l 1,39,-1
 203 264 l 1,31,-1
EndSplineSet
EndChar

StartChar: b
Encoding: 98 98 66
Width: 415
GlyphClass: 2
Flags: W
LayerCount: 2
Fore
SplineSet
55 677 m 1,0,-1
 55 677 l 1,1,-1
 55 346 l 1,2,-1
 128 422 l 1,3,-1
 128 422 l 1,4,-1
 248 434 l 1,5,-1
 248 434 l 1,6,-1
 338 361 l 1,7,-1
 338 361 l 1,8,-1
 370 236 l 1,9,-1
 370 236 l 1,10,-1
 339 111 l 1,11,-1
 339 111 l 1,12,-1
 251 25 l 1,13,-1
 251 25 l 1,14,-1
 130 -14 l 1,15,-1
 129 -14 l 1,16,-1
 55 -14 l 1,17,-1
 55 -14 l 1,18,-1
 55 346 l 1,19,-1
 55 677 l 1,0,-1
248 434 m 1,20,-1
 128 422 l 1,21,-1
 55 346 l 1,22,-1
 55 -14 l 1,23,-1
 130 -14 l 1,24,-1
 251 25 l 1,25,-1
 339 111 l 1,26,-1
 370 236 l 1,27,-1
 338 361 l 1,28,-1
 248 434 l 1,20,-1
EndSplineSet
EndChar

StartChar: c
Encoding: 99 99 67
Width: 371
GlyphClass: 2
Flags: W
LayerCount: 2
Fore
SplineSet
324 464 m 1,0,-1
 324 464 l 1,1,-1
 255 455 l 1,2,-1
 184 432 l 1,3,-1
 85 352 l 1,4,-1
 45 239 l 1,5,-1
 85 117 l 1,6,-1
 185 36 l 1,7,-1
 255 -2 l 1,8,-1
 324 -14 l 1,9,-1
 324 -14 l 1,10,-1
 255 -2 l 1,11,-1
 255 -2 l 1,12,-1
 185 36 l 1,13,-1
 185 36 l 1,14,-1
 85 117 l 1,15,-1
 85 117 l 1,16,-1
 45 239 l 1,17,-1
 45 239 l 1,18,-1
 85 352 l 1,19,-1
 85 352 l 1,20,-1
 184 432 l 1,21,-1
 184 432 l 1,22,-1
 255 455 l 1,23,-1
 255 455 l 1,24,-1
 324 464 l 1,0,-1
EndSplineSet
EndChar

StartChar: d
Encoding: 100 100 68
Width: 415
GlyphClass: 2
Flags: W
LayerCount: 2
Fore
SplineSet
360 677 m 1,0,-1
 360 677 l 1,1,-1
 360 346 l 1,2,-1
 360 -14 l 1,3,-1
 360 -14 l 1,4,-1
 286 -14 l 1,5,-1
 286 -14 l 1,6,-1
 162 26 l 1,7,-1
 162 26 l 1,8,-1
 76 111 l 1,9,-1
 76 111 l 1,10,-1
 45 236 l 1,11,-1
 45 236 l 1,12,-1
 77 361 l 1,13,-1
 77 361 l 1,14,-1
 167 434 l 1,15,-1
 167 434 l 1,16,-1
 287 422 l 1,17,-1
 287 422 l 1,18,-1
 360 346 l 1,19,-1
 360 677 l 1,0,-1
167 434 m 1,20,-1
 77 361 l 1,21,-1
 45 236 l 1,22,-1
 76 111 l 1,23,-1
 162 26 l 1,24,-1
 286 -14 l 1,25,-1
 360 -14 l 1,26,-1
 360 346 l 1,27,-1
 287 422 l 1,28,-1
 167 434 l 1,20,-1
EndSplineSet
EndChar

StartChar: e
Encoding: 101 101 69
Width: 404
GlyphClass: 2
Flags: W
LayerCount: 2
Fore
SplineSet
227 459 m 1,0,-1
 227 459 l 1,1,-1
 314 440 l 1,2,-1
 314 440 l 1,3,-1
 358 382 l 1,4,-1
 358 382 l 1,5,-1
 383 310 l 1,6,-1
 383 309 l 1,7,-1
 383 233 l 1,8,-1
 383 233 l 1,9,-1
 299 208 l 1,10,-1
 211 183 l 1,11,-1
 211 183 l 1,12,-1
 127 208 l 1,13,-1
 39 238 l 1,14,-1
 58 154 l 1,15,-1
 98 86 l 1,16,-1
 152 28 l 1,17,-1
 223 -14 l 1,18,-1
 278 -11 l 1,19,-1
 320 4 l 1,20,-1
 359 28 l 1,21,-1
 386 66 l 1,22,-1
 386 66 l 1,23,-1
 359 28 l 1,24,-1
 359 28 l 1,25,-1
 320 4 l 1,26,-1
 320 4 l 1,27,-1
 278 -11 l 1,28,-1
 278 -11 l 1,29,-1
 223 -14 l 1,30,-1
 223 -14 l 1,31,-1
 152 28 l 1,32,-1
 152 28 l 1,33,-1
 98 86 l 1,34,-1
 98 86 l 1,35,-1
 58 154 l 1,36,-1
 58 154 l 1,37,-1
 39 238 l 1,38,-1
 39 238 l 1,39,-1
 50 321 l 1,40,-1
 50 321 l 1,41,-1
 82 383 l 1,42,-1
 82 383 l 1,43,-1
 135 442 l 1,44,-1
 135 442 l 1,45,-1
 227 459 l 1,0,-1
227 459 m 1,46,-1
 135 442 l 1,47,-1
 82 383 l 1,48,-1
 50 321 l 1,49,-1
 39 238 l 1,50,-1
 127 208 l 1,51,-1
 211 183 l 1,52,-1
 299 208 l 1,53,-1
 383 233 l 1,54,-1
 383 310 l 1,55,-1
 358 382 l 1,56,-1
 314 440 l 1,57,-1
 227 459 l 1,46,-1
EndSplineSet
EndChar

StartChar: f
Encoding: 102 102 70
Width: 428
GlyphClass: 2
Flags: W
LayerCount: 2
Fore
SplineSet
270 661 m 1,0,-1
 331 661 l 1,1,-1
 383 656 l 1,2,-1
 383 656 l 1,3,-1
 331 661 l 1,4,-1
 270 661 l 1,5,-1
 196 638 l 1,6,-1
 156 582 l 1,7,-1
 156 445 l 1,8,-1
 315 445 l 1,9,-1
 315 445 l 1,10,-1
 156 445 l 1,11,-1
 156 0 l 1,12,-1
 156 0 l 1,13,-1
 156 445 l 1,14,-1
 45 445 l 1,15,-1
 45 445 l 1,16,-1
 156 445 l 1,17,-1
 156 582 l 1,18,-1
 156 582 l 1,19,-1
 196 638 l 1,20,-1
 196 638 l 1,21,-1
 270 661 l 1,22,-1
 270 661 l 1,0,-1
EndSplineSet
EndChar

StartChar: g
Encoding: 103 103 71
Width: 375
GlyphClass: 2
Flags: W
LayerCount: 2
Fore
SplineSet
405 531 m 1,0,-1
 405 531 l 1,1,-1
 317 468 l 1,2,-1
 317 468 l 1,3,-1
 230 461 l 1,4,-1
 308 433 l 1,5,-1
 308 433 l 1,6,-1
 333 385 l 1,7,-1
 333 385 l 1,8,-1
 341 322 l 1,9,-1
 341 322 l 1,10,-1
 332 261 l 1,11,-1
 332 261 l 1,12,-1
 305 216 l 1,13,-1
 305 216 l 1,14,-1
 248 197 l 1,15,-1
 248 197 l 1,16,-1
 192 194 l 1,17,-1
 192 194 l 1,18,-1
 135 197 l 1,19,-1
 135 197 l 1,20,-1
 135 197 l 1,21,-1
 79 153 l 1,22,-1
 80 77 l 1,23,-1
 149 91 l 1,24,-1
 149 91 l 1,25,-1
 223 87 l 1,26,-1
 223 87 l 1,27,-1
 313 58 l 1,28,-1
 313 58 l 1,29,-1
 372 -4 l 1,30,-1
 372 -4 l 1,31,-1
 369 -91 l 1,32,-1
 369 -91 l 1,33,-1
 334 -145 l 1,34,-1
 334 -145 l 1,35,-1
 273 -171 l 1,36,-1
 273 -171 l 1,37,-1
 194 -177 l 1,38,-1
 127 -171 l 1,39,-1
 127 -171 l 1,40,-1
 71 -152 l 1,41,-1
 71 -152 l 1,42,-1
 33 -108 l 1,43,-1
 33 -108 l 1,44,-1
 16 -49 l 1,45,-1
 16 -49 l 1,46,-1
 33 -108 l 1,47,-1
 71 -152 l 1,48,-1
 127 -171 l 1,49,-1
 194 -177 l 1,50,-1
 273 -171 l 1,51,-1
 334 -145 l 1,52,-1
 369 -91 l 1,53,-1
 372 -4 l 1,54,-1
 313 58 l 1,55,-1
 223 87 l 1,56,-1
 149 91 l 1,57,-1
 80 77 l 1,58,-1
 80 77 l 1,59,-1
 79 153 l 1,60,-1
 79 153 l 1,61,-1
 135 197 l 1,62,-1
 74 218 l 1,63,-1
 74 218 l 1,64,-1
 49 261 l 1,65,-1
 49 261 l 1,66,-1
 39 323 l 1,67,-1
 39 323 l 1,68,-1
 48 383 l 1,69,-1
 48 383 l 1,70,-1
 74 433 l 1,71,-1
 74 433 l 1,72,-1
 126 458 l 1,73,-1
 126 458 l 1,74,-1
 191 465 l 1,75,-1
 191 465 l 1,76,-1
 230 461 l 1,77,-1
 317 468 l 1,78,-1
 405 531 l 1,0,-1
191 465 m 1,79,-1
 126 458 l 1,80,-1
 74 433 l 1,81,-1
 48 383 l 1,82,-1
 39 323 l 1,83,-1
 49 261 l 1,84,-1
 74 218 l 1,85,-1
 135 197 l 1,86,-1
 192 194 l 1,87,-1
 248 197 l 1,88,-1
 305 216 l 1,89,-1
 332 261 l 1,90,-1
 341 322 l 1,91,-1
 333 385 l 1,92,-1
 308 433 l 1,93,-1
 230 461 l 1,94,-1
 191 465 l 1,79,-1
EndSplineSet
EndChar

StartChar: h
Encoding: 104 104 72
Width: 381
GlyphClass: 2
Flags: W
LayerCount: 2
Fore
SplineSet
55 667 m 1,0,-1
 55 667 l 1,1,-1
 55 333 l 1,2,-1
 97 442 l 1,3,-1
 97 442 l 1,4,-1
 190 512 l 1,5,-1
 190 512 l 1,6,-1
 281 503 l 1,7,-1
 281 503 l 1,8,-1
 327 431 l 1,9,-1
 327 431 l 1,10,-1
 336 332 l 1,11,-1
 336 332 l 1,12,-1
 336 69 l 1,13,-1
 336 0 l 1,14,-1
 336 0 l 1,15,-1
 336 69 l 1,16,-1
 336 332 l 1,17,-1
 327 431 l 1,18,-1
 281 503 l 1,19,-1
 190 512 l 1,20,-1
 97 442 l 1,21,-1
 55 333 l 1,22,-1
 55 0 l 1,23,-1
 55 0 l 1,24,-1
 55 333 l 1,25,-1
 55 333 l 1,26,-1
 55 667 l 1,0,-1
EndSplineSet
EndChar

StartChar: i
Encoding: 105 105 73
Width: 204
GlyphClass: 2
Flags: W
LayerCount: 2
Fore
SplineSet
101 689 m 1,0,-1
 101 689 l 1,1,-1
 122 688 l 1,2,-1
 122 688 l 1,3,-1
 145 679 l 1,4,-1
 145 679 l 1,5,-1
 157 656 l 1,6,-1
 157 656 l 1,7,-1
 159 634 l 1,8,-1
 159 634 l 1,9,-1
 157 612 l 1,10,-1
 157 612 l 1,11,-1
 147 591 l 1,12,-1
 147 591 l 1,13,-1
 124 579 l 1,14,-1
 124 579 l 1,15,-1
 101 577 l 1,16,-1
 101 577 l 1,17,-1
 81 578 l 1,18,-1
 81 578 l 1,19,-1
 56 591 l 1,20,-1
 56 591 l 1,21,-1
 47 612 l 1,22,-1
 47 612 l 1,23,-1
 45 635 l 1,24,-1
 45 635 l 1,25,-1
 46 654 l 1,26,-1
 46 654 l 1,27,-1
 56 676 l 1,28,-1
 56 676 l 1,29,-1
 79 687 l 1,30,-1
 79 687 l 1,31,-1
 101 689 l 1,0,-1
101 689 m 1,32,-1
 79 687 l 1,33,-1
 56 676 l 1,34,-1
 46 654 l 1,35,-1
 45 635 l 1,36,-1
 47 612 l 1,37,-1
 56 591 l 1,38,-1
 81 578 l 1,39,-1
 101 577 l 1,40,-1
 124 579 l 1,41,-1
 147 591 l 1,42,-1
 157 612 l 1,43,-1
 159 634 l 1,44,-1
 157 656 l 1,45,-1
 145 679 l 1,46,-1
 122 688 l 1,47,-1
 101 689 l 1,32,-1
102 473 m 1,48,-1
 102 473 l 1,49,-1
 103 0 l 1,50,-1
 103 0 l 1,51,-1
 102 473 l 1,48,-1
EndSplineSet
EndChar

StartChar: j
Encoding: 106 106 74
Width: 261
GlyphClass: 2
Flags: W
LayerCount: 2
Fore
SplineSet
158 690 m 1,0,-1
 158 690 l 1,1,-1
 179 689 l 1,2,-1
 179 689 l 1,3,-1
 202 680 l 1,4,-1
 202 680 l 1,5,-1
 214 657 l 1,6,-1
 214 657 l 1,7,-1
 216 635 l 1,8,-1
 216 635 l 1,9,-1
 214 613 l 1,10,-1
 214 613 l 1,11,-1
 204 592 l 1,12,-1
 204 592 l 1,13,-1
 181 580 l 1,14,-1
 181 580 l 1,15,-1
 158 578 l 1,16,-1
 158 578 l 1,17,-1
 138 579 l 1,18,-1
 138 579 l 1,19,-1
 113 592 l 1,20,-1
 113 592 l 1,21,-1
 104 613 l 1,22,-1
 104 613 l 1,23,-1
 102 636 l 1,24,-1
 102 636 l 1,25,-1
 103 655 l 1,26,-1
 103 655 l 1,27,-1
 113 677 l 1,28,-1
 113 677 l 1,29,-1
 136 688 l 1,30,-1
 136 688 l 1,31,-1
 158 690 l 1,0,-1
158 690 m 1,32,-1
 136 688 l 1,33,-1
 113 677 l 1,34,-1
 103 655 l 1,35,-1
 102 636 l 1,36,-1
 104 613 l 1,37,-1
 113 592 l 1,38,-1
 138 579 l 1,39,-1
 158 578 l 1,40,-1
 181 580 l 1,41,-1
 204 592 l 1,42,-1
 214 613 l 1,43,-1
 216 635 l 1,44,-1
 214 657 l 1,45,-1
 202 680 l 1,46,-1
 179 689 l 1,47,-1
 158 690 l 1,32,-1
159 474 m 1,48,-1
 159 474 l 1,49,-1
 159 -7 l 1,50,-1
 159 -7 l 1,51,-1
 157 -60 l 1,52,-1
 157 -60 l 1,53,-1
 138 -107 l 1,54,-1
 138 -107 l 1,55,-1
 102 -140 l 1,56,-1
 102 -140 l 1,57,-1
 45 -158 l 1,58,-1
 45 -158 l 1,59,-1
 102 -140 l 1,60,-1
 138 -107 l 1,61,-1
 157 -60 l 1,62,-1
 159 -7 l 1,63,-1
 159 474 l 1,48,-1
EndSplineSet
EndChar

StartChar: k
Encoding: 107 107 75
Width: 378
GlyphClass: 2
Flags: W
LayerCount: 2
Fore
SplineSet
55 667 m 1,0,-1
 55 667 l 1,1,-1
 55 270 l 1,2,-1
 119 286 l 1,3,-1
 180 323 l 1,4,-1
 260 388 l 1,5,-1
 312 477 l 1,6,-1
 312 477 l 1,7,-1
 260 388 l 1,8,-1
 260 388 l 1,9,-1
 180 323 l 1,10,-1
 119 286 l 1,11,-1
 119 286 l 1,12,-1
 55 270 l 1,13,-1
 125 231 l 1,14,-1
 125 231 l 1,15,-1
 196 182 l 1,16,-1
 196 182 l 1,17,-1
 265 96 l 1,18,-1
 265 96 l 1,19,-1
 324 -2 l 1,20,-1
 324 -2 l 1,21,-1
 265 96 l 1,22,-1
 196 182 l 1,23,-1
 125 231 l 1,24,-1
 55 270 l 1,25,-1
 55 0 l 1,26,-1
 55 0 l 1,27,-1
 55 667 l 1,0,-1
EndSplineSet
EndChar

StartChar: l
Encoding: 108 108 76
Width: 100
GlyphClass: 2
Flags: W
LayerCount: 2
Fore
SplineSet
55 674 m 1,0,-1
 55 674 l 1,1,-1
 55 -9 l 1,2,-1
 55 -9 l 1,3,-1
 55 674 l 1,0,-1
EndSplineSet
EndChar

StartChar: m
Encoding: 109 109 77
Width: 626
GlyphClass: 2
Flags: W
LayerCount: 2
Fore
SplineSet
179 490 m 1,0,-1
 247 491 l 1,1,-1
 247 491 l 1,2,-1
 314 358 l 1,3,-1
 362 439 l 1,4,-1
 362 439 l 1,5,-1
 442 490 l 1,6,-1
 442 490 l 1,7,-1
 510 491 l 1,8,-1
 510 491 l 1,9,-1
 581 347 l 1,10,-1
 581 347 l 1,11,-1
 581 0 l 1,12,-1
 581 0 l 1,13,-1
 581 347 l 1,14,-1
 510 491 l 1,15,-1
 442 490 l 1,16,-1
 362 439 l 1,17,-1
 314 358 l 1,18,-1
 314 0 l 1,19,-1
 314 0 l 1,20,-1
 314 358 l 1,21,-1
 247 491 l 1,22,-1
 179 490 l 1,23,-1
 99 439 l 1,24,-1
 55 363 l 1,25,-1
 55 0 l 1,26,-1
 55 0 l 1,27,-1
 55 474 l 1,28,-1
 55 474 l 1,29,-1
 55 363 l 1,30,-1
 99 439 l 1,31,-1
 99 439 l 1,32,-1
 179 490 l 1,33,-1
 179 490 l 1,0,-1
EndSplineSet
EndChar

StartChar: n
Encoding: 110 110 78
Width: 305
GlyphClass: 2
Flags: W
LayerCount: 2
Fore
SplineSet
147 490 m 1,0,-1
 215 491 l 1,1,-1
 215 491 l 1,2,-1
 286 347 l 1,3,-1
 286 347 l 1,4,-1
 286 0 l 1,5,-1
 286 0 l 1,6,-1
 286 347 l 1,7,-1
 215 491 l 1,8,-1
 147 490 l 1,9,-1
 67 439 l 1,10,-1
 23 363 l 1,11,-1
 23 0 l 1,12,-1
 23 0 l 1,13,-1
 23 474 l 1,14,-1
 23 474 l 1,15,-1
 23 363 l 1,16,-1
 67 439 l 1,17,-1
 67 439 l 1,18,-1
 147 490 l 1,19,-1
 147 490 l 1,0,-1
EndSplineSet
EndChar

StartChar: o
Encoding: 111 111 79
Width: 490
GlyphClass: 2
Flags: W
LayerCount: 2
Fore
SplineSet
247 476 m 1,0,-1
 247 476 l 1,1,-1
 331 454 l 1,2,-1
 331 454 l 1,3,-1
 393 403 l 1,4,-1
 393 403 l 1,5,-1
 427 326 l 1,6,-1
 427 326 l 1,7,-1
 445 228 l 1,8,-1
 445 228 l 1,9,-1
 427 132 l 1,10,-1
 427 132 l 1,11,-1
 390 56 l 1,12,-1
 390 56 l 1,13,-1
 328 3 l 1,14,-1
 328 3 l 1,15,-1
 250 -16 l 1,16,-1
 250 -16 l 1,17,-1
 165 4 l 1,18,-1
 165 4 l 1,19,-1
 104 55 l 1,20,-1
 104 55 l 1,21,-1
 64 135 l 1,22,-1
 64 135 l 1,23,-1
 45 230 l 1,24,-1
 45 230 l 1,25,-1
 65 324 l 1,26,-1
 65 324 l 1,27,-1
 104 407 l 1,28,-1
 104 407 l 1,29,-1
 167 457 l 1,30,-1
 167 457 l 1,31,-1
 247 476 l 1,0,-1
247 476 m 1,32,-1
 167 457 l 1,33,-1
 104 407 l 1,34,-1
 65 324 l 1,35,-1
 45 230 l 1,36,-1
 64 135 l 1,37,-1
 104 55 l 1,38,-1
 165 4 l 1,39,-1
 250 -16 l 1,40,-1
 328 3 l 1,41,-1
 390 56 l 1,42,-1
 427 132 l 1,43,-1
 445 228 l 1,44,-1
 427 326 l 1,45,-1
 393 403 l 1,46,-1
 331 454 l 1,47,-1
 247 476 l 1,32,-1
EndSplineSet
EndChar

StartChar: p
Encoding: 112 112 80
Width: 353
GlyphClass: 2
Flags: W
LayerCount: 2
Fore
SplineSet
45 474 m 1,0,-1
 151 471 l 1,1,-1
 151 471 l 1,2,-1
 225 439 l 1,3,-1
 225 439 l 1,4,-1
 290 376 l 1,5,-1
 290 376 l 1,6,-1
 307 296 l 1,7,-1
 307 296 l 1,8,-1
 273 212 l 1,9,-1
 273 212 l 1,10,-1
 200 158 l 1,11,-1
 200 158 l 1,12,-1
 154 142 l 1,13,-1
 152 142 l 1,14,-1
 45 142 l 1,15,-1
 45 -190 l 1,16,-1
 45 -190 l 1,17,-1
 45 142 l 1,18,-1
 45 474 l 1,19,-1
 45 474 l 1,0,-1
45 474 m 1,20,-1
 45 142 l 1,21,-1
 154 142 l 1,22,-1
 200 158 l 1,23,-1
 273 212 l 1,24,-1
 307 296 l 1,25,-1
 290 376 l 1,26,-1
 225 439 l 1,27,-1
 151 471 l 1,28,-1
 45 474 l 1,20,-1
EndSplineSet
EndChar

StartChar: q
Encoding: 113 113 81
Width: 353
GlyphClass: 2
Flags: W
LayerCount: 2
Fore
SplineSet
308 474 m 1,0,-1
 308 474 l 1,1,-1
 308 142 l 1,2,-1
 308 -190 l 1,3,-1
 308 -190 l 1,4,-1
 308 142 l 1,5,-1
 199 142 l 1,6,-1
 199 142 l 1,7,-1
 151 159 l 1,8,-1
 151 159 l 1,9,-1
 78 214 l 1,10,-1
 78 214 l 1,11,-1
 45 299 l 1,12,-1
 45 299 l 1,13,-1
 64 379 l 1,14,-1
 64 379 l 1,15,-1
 129 440 l 1,16,-1
 129 440 l 1,17,-1
 203 471 l 1,18,-1
 203 471 l 1,19,-1
 308 474 l 1,0,-1
308 474 m 1,20,-1
 203 471 l 1,21,-1
 129 440 l 1,22,-1
 64 379 l 1,23,-1
 45 299 l 1,24,-1
 78 214 l 1,25,-1
 151 159 l 1,26,-1
 199 142 l 1,27,-1
 308 142 l 1,28,-1
 308 474 l 1,20,-1
EndSplineSet
EndChar

StartChar: r
Encoding: 114 114 82
Width: 314
GlyphClass: 2
Flags: W
LayerCount: 2
Fore
SplineSet
55 474 m 1,0,-1
 55 474 l 1,1,-1
 55 331 l 1,2,-1
 71 381 l 1,3,-1
 71 381 l 1,4,-1
 96 430 l 1,5,-1
 96 430 l 1,6,-1
 139 457 l 1,7,-1
 139 457 l 1,8,-1
 169 463 l 1,9,-1
 204 465 l 1,10,-1
 204 465 l 1,11,-1
 245 457 l 1,12,-1
 245 457 l 1,13,-1
 269 442 l 1,14,-1
 269 442 l 1,15,-1
 245 457 l 1,16,-1
 204 465 l 1,17,-1
 169 463 l 1,18,-1
 139 457 l 1,19,-1
 96 430 l 1,20,-1
 71 381 l 1,21,-1
 55 331 l 1,22,-1
 55 331 l 1,23,-1
 55 0 l 1,24,-1
 55 0 l 1,25,-1
 55 280 l 1,26,-1
 55 280 l 1,27,-1
 55 474 l 1,0,-1
EndSplineSet
EndChar

StartChar: s
Encoding: 115 115 83
Width: 390
GlyphClass: 2
Flags: W
LayerCount: 2
Fore
SplineSet
209 491 m 1,0,-1
 209 491 l 1,1,-1
 267 489 l 1,2,-1
 267 489 l 1,3,-1
 308 471 l 1,4,-1
 308 471 l 1,5,-1
 341 443 l 1,6,-1
 341 443 l 1,7,-1
 356 400 l 1,8,-1
 356 400 l 1,9,-1
 341 443 l 1,10,-1
 308 471 l 1,11,-1
 267 489 l 1,12,-1
 209 491 l 1,13,-1
 130 487 l 1,14,-1
 74 455 l 1,15,-1
 34 385 l 1,16,-1
 39 315 l 1,17,-1
 122 288 l 1,18,-1
 198 257 l 1,19,-1
 273 225 l 1,20,-1
 352 190 l 1,21,-1
 352 190 l 1,22,-1
 362 114 l 1,23,-1
 362 114 l 1,24,-1
 332 38 l 1,25,-1
 332 38 l 1,26,-1
 285 -5 l 1,27,-1
 285 -5 l 1,28,-1
 209 -14 l 1,29,-1
 143 -13 l 1,30,-1
 143 -13 l 1,31,-1
 95 4 l 1,32,-1
 95 4 l 1,33,-1
 55 32 l 1,34,-1
 55 32 l 1,35,-1
 32 74 l 1,36,-1
 32 74 l 1,37,-1
 55 32 l 1,38,-1
 95 4 l 1,39,-1
 143 -13 l 1,40,-1
 209 -14 l 1,41,-1
 285 -5 l 1,42,-1
 332 38 l 1,43,-1
 362 114 l 1,44,-1
 352 190 l 1,45,-1
 273 225 l 1,46,-1
 198 257 l 1,47,-1
 122 288 l 1,48,-1
 39 315 l 1,49,-1
 39 315 l 1,50,-1
 34 385 l 1,51,-1
 34 385 l 1,52,-1
 74 455 l 1,53,-1
 74 455 l 1,54,-1
 130 487 l 1,55,-1
 130 487 l 1,56,-1
 209 491 l 1,0,-1
EndSplineSet
EndChar

StartChar: t
Encoding: 116 116 84
Width: 369
GlyphClass: 2
Flags: W
LayerCount: 2
Fore
SplineSet
156 586 m 1,0,-1
 156 586 l 1,1,-1
 156 448 l 1,2,-1
 324 448 l 1,3,-1
 324 448 l 1,4,-1
 156 448 l 1,5,-1
 156 68 l 1,6,-1
 159 37 l 1,7,-1
 174 8 l 1,8,-1
 199 -8 l 1,9,-1
 232 -14 l 1,10,-1
 232 -14 l 1,11,-1
 199 -8 l 1,12,-1
 199 -8 l 1,13,-1
 174 8 l 1,14,-1
 174 8 l 1,15,-1
 159 37 l 1,16,-1
 159 37 l 1,17,-1
 156 68 l 1,18,-1
 156 448 l 1,19,-1
 45 448 l 1,20,-1
 45 448 l 1,21,-1
 156 448 l 1,22,-1
 156 586 l 1,0,-1
EndSplineSet
EndChar

StartChar: u
Encoding: 117 117 85
Width: 367
GlyphClass: 2
Flags: W
LayerCount: 2
Fore
SplineSet
45 454 m 1,0,-1
 45 454 l 1,1,-1
 45 130 l 1,2,-1
 48 80 l 1,3,-1
 59 39 l 1,4,-1
 92 3 l 1,5,-1
 138 -14 l 1,6,-1
 207 -6 l 1,7,-1
 272 39 l 1,8,-1
 312 111 l 1,9,-1
 312 454 l 1,10,-1
 312 454 l 1,11,-1
 312 1 l 1,12,-1
 312 1 l 1,13,-1
 312 111 l 1,14,-1
 272 39 l 1,15,-1
 272 39 l 1,16,-1
 207 -6 l 1,17,-1
 207 -6 l 1,18,-1
 138 -14 l 1,19,-1
 138 -14 l 1,20,-1
 92 3 l 1,21,-1
 92 3 l 1,22,-1
 59 39 l 1,23,-1
 59 39 l 1,24,-1
 48 80 l 1,25,-1
 48 81 l 1,26,-1
 45 130 l 1,27,-1
 45 454 l 1,0,-1
EndSplineSet
EndChar

StartChar: v
Encoding: 118 118 86
Width: 432
GlyphClass: 2
Flags: W
LayerCount: 2
Fore
SplineSet
45 473 m 1,0,-1
 218 -2 l 1,1,-1
 387 473 l 1,2,-1
 387 473 l 1,3,-1
 218 -2 l 1,4,-1
 218 -2 l 1,5,-1
 45 473 l 1,6,-1
 45 473 l 1,0,-1
EndSplineSet
EndChar

StartChar: w
Encoding: 119 119 87
Width: 637
GlyphClass: 2
Flags: W
LayerCount: 2
Fore
SplineSet
45 474 m 1,0,-1
 58 237 l 1,1,2
 58 237 58 237 82 118 c 1,3,4
 82 118 82 118 118 35 c 1,5,6
 118 35 118 35 177 -5 c 1,7,8
 177 -5 177 -5 237 34 c 1,9,10
 237 34 237 34 275 117 c 1,11,12
 275 117 275 117 302 237 c 1,13,14
 302 237 302 237 307 283 c 1,15,16
 307 283 307 283 314 314 c 1,17,18
 314 314 314 314 318 325 c 1,19,20
 318 325 318 325 318 325 c 257,21,22
 318 325 318 325 318 325 c 257,23,24
 318 325 318 325 318 325 c 257,25,26
 318 325 318 325 322 318 c 2,27,28
 322 318 322 318 329 285 c 2,29,30
 329 285 329 285 334 237 c 1,31,-1
 334 237 l 1,32,33
 334 237 334 237 362 117 c 1,34,35
 362 117 362 117 400 34 c 1,36,37
 400 34 400 34 461 -5 c 1,38,39
 461 -5 461 -5 520 35 c 1,40,41
 520 35 520 35 555 118 c 1,42,43
 555 118 555 118 555 118 c 257,44,45
 555 118 555 118 579 237 c 1,46,-1
 579 237 l 1,47,-1
 592 474 l 1,48,-1
 592 474 l 1,49,-1
 579 237 l 1,50,51
 579 237 579 237 555 118 c 1,52,53
 555 118 555 118 520 35 c 1,54,55
 520 35 520 35 461 -5 c 1,56,57
 461 -5 461 -5 400 34 c 1,58,59
 400 34 400 34 362 117 c 1,60,61
 362 117 362 117 362 117 c 257,62,63
 362 117 362 117 334 237 c 1,64,-1
 334 237 l 1,65,-1
 334 237 l 1,66,67
 334 237 334 237 329 285 c 1,68,69
 329 285 329 285 322 318 c 1,70,71
 322 318 322 318 318 325 c 1,72,73
 318 325 318 325 318 325 c 257,74,75
 318 325 318 325 314 314 c 2,76,77
 314 314 314 314 307 283 c 2,78,-1
 302 237 l 1,79,80
 302 237 302 237 275 117 c 1,81,82
 275 117 275 117 237 34 c 1,83,84
 237 34 237 34 177 -5 c 1,85,86
 177 -5 177 -5 118 35 c 1,87,88
 118 35 118 35 82 118 c 1,89,90
 82 118 82 118 82 118 c 257,91,92
 82 118 82 118 58 237 c 1,93,-1
 58 237 l 1,94,-1
 45 474 l 1,95,-1
 45 474 l 1,0,-1
EndSplineSet
EndChar

StartChar: x
Encoding: 120 120 88
Width: 424
GlyphClass: 2
Flags: W
LayerCount: 2
Fore
SplineSet
354 477 m 1,0,-1
 354 477 l 1,1,-1
 214 253 l 1,2,-1
 379 3 l 1,3,-1
 379 3 l 1,4,-1
 214 253 l 1,5,-1
 45 3 l 1,6,-1
 45 3 l 1,7,-1
 214 253 l 1,8,-1
 77 477 l 1,9,-1
 77 477 l 1,10,-1
 214 253 l 1,11,-1
 354 477 l 1,0,-1
EndSplineSet
EndChar

StartChar: y
Encoding: 121 121 89
Width: 433
GlyphClass: 2
Flags: W
LayerCount: 2
Fore
SplineSet
45 472 m 1,0,-1
 217 27 l 1,1,-1
 388 472 l 1,2,-1
 388 472 l 1,3,-1
 217 27 l 1,4,-1
 217 27 l 1,5,-1
 217 27 l 1,6,-1
 150 -130 l 1,7,-1
 150 -130 l 1,8,-1
 129 -162 l 1,9,-1
 129 -162 l 1,10,-1
 97 -174 l 1,11,-1
 97 -174 l 1,12,-1
 68 -172 l 1,13,-1
 68 -172 l 1,14,-1
 48 -165 l 1,15,-1
 48 -165 l 1,16,-1
 68 -172 l 1,17,-1
 97 -174 l 1,18,-1
 129 -162 l 1,19,-1
 150 -130 l 1,20,-1
 217 27 l 1,21,-1
 45 472 l 1,22,-1
 45 472 l 1,0,-1
EndSplineSet
EndChar

StartChar: z
Encoding: 122 122 90
Width: 438
GlyphClass: 2
Flags: W
LayerCount: 2
Fore
SplineSet
70 445 m 1,0,-1
 389 445 l 1,1,-1
 389 445 l 1,2,-1
 215 223 l 1,3,-1
 46 0 l 1,4,-1
 384 0 l 1,5,-1
 384 0 l 1,6,-1
 46 0 l 1,7,-1
 46 0 l 1,8,-1
 215 223 l 1,9,-1
 389 445 l 1,10,-1
 70 445 l 1,11,-1
 70 445 l 1,0,-1
EndSplineSet
EndChar

StartChar: braceleft
Encoding: 123 123 91
Width: 182
GlyphClass: 2
Flags: W
LayerCount: 2
Fore
SplineSet
130 732 m 1,0,-1
 130 732 l 1,1,-1
 89 689 l 1,2,-1
 89 351 l 1,3,-1
 89 351 l 1,4,-1
 45 311 l 1,5,-1
 89 279 l 1,6,-1
 89 279 l 1,7,-1
 89 -59 l 1,8,-1
 130 -103 l 1,9,-1
 130 -103 l 1,10,-1
 89 -59 l 1,11,-1
 89 -59 l 1,12,-1
 89 279 l 1,13,-1
 45 311 l 1,14,-1
 45 311 l 1,15,-1
 89 351 l 1,16,-1
 89 689 l 1,17,-1
 89 689 l 1,18,-1
 130 732 l 1,0,-1
EndSplineSet
EndChar

StartChar: bar
Encoding: 124 124 92
Width: 100
GlyphClass: 2
Flags: W
LayerCount: 2
Fore
SplineSet
45 726 m 1,0,-1
 45 726 l 1,1,-1
 45 -92 l 1,2,-1
 45 -92 l 1,3,-1
 45 726 l 1,0,-1
EndSplineSet
EndChar

StartChar: braceright
Encoding: 125 125 93
Width: 182
GlyphClass: 2
Flags: W
LayerCount: 2
Fore
SplineSet
52 732 m 1,0,-1
 93 689 l 1,1,-1
 93 689 l 1,2,-1
 93 351 l 1,3,-1
 137 311 l 1,4,-1
 137 311 l 1,5,-1
 93 279 l 1,6,-1
 93 -59 l 1,7,-1
 93 -59 l 1,8,-1
 52 -103 l 1,9,-1
 52 -103 l 1,10,-1
 93 -59 l 1,11,-1
 93 279 l 1,12,-1
 93 279 l 1,13,-1
 137 311 l 1,14,-1
 93 351 l 1,15,-1
 93 351 l 1,16,-1
 93 689 l 1,17,-1
 52 732 l 1,18,-1
 52 732 l 1,0,-1
EndSplineSet
EndChar

StartChar: asciitilde
Encoding: 126 126 94
Width: 426
GlyphClass: 2
Flags: W
LayerCount: 2
Fore
SplineSet
153 341 m 1,0,-1
 153 341 l 1,1,-1
 188 322 l 1,2,-1
 188 322 l 1,3,-1
 220 287 l 1,4,-1
 252 253 l 1,5,-1
 283 236 l 1,6,-1
 334 239 l 1,7,-1
 366 252 l 1,8,-1
 380 285 l 1,9,-1
 383 334 l 1,10,-1
 383 334 l 1,11,-1
 380 285 l 1,12,-1
 380 285 l 1,13,-1
 366 252 l 1,14,-1
 366 252 l 1,15,-1
 334 239 l 1,16,-1
 334 239 l 1,17,-1
 283 236 l 1,18,-1
 283 236 l 1,19,-1
 252 253 l 1,20,-1
 252 253 l 1,21,-1
 220 287 l 1,22,-1
 188 322 l 1,23,-1
 153 341 l 1,24,-1
 94 338 l 1,25,-1
 58 323 l 1,26,-1
 35 275 l 1,27,-1
 35 228 l 1,28,-1
 35 228 l 1,29,-1
 35 275 l 1,30,-1
 35 275 l 1,31,-1
 58 323 l 1,32,-1
 58 323 l 1,33,-1
 94 338 l 1,34,-1
 94 338 l 1,35,-1
 153 341 l 1,0,-1
EndSplineSet
EndChar

StartChar: exclamdown
Encoding: 161 161 95
Width: 228
GlyphClass: 2
Flags: W
LayerCount: 2
Fore
SplineSet
101 454 m 1,0,-1
 101 454 l 1,1,-1
 122 453 l 1,2,-1
 122 453 l 1,3,-1
 145 444 l 1,4,-1
 145 444 l 1,5,-1
 157 421 l 1,6,-1
 157 421 l 1,7,-1
 159 399 l 1,8,-1
 159 399 l 1,9,-1
 157 377 l 1,10,-1
 157 377 l 1,11,-1
 147 356 l 1,12,-1
 147 356 l 1,13,-1
 124 344 l 1,14,-1
 124 344 l 1,15,-1
 101 342 l 1,16,-1
 101 342 l 1,17,-1
 81 343 l 1,18,-1
 81 343 l 1,19,-1
 56 356 l 1,20,-1
 56 356 l 1,21,-1
 47 377 l 1,22,-1
 47 377 l 1,23,-1
 45 400 l 1,24,-1
 45 400 l 1,25,-1
 46 419 l 1,26,-1
 46 419 l 1,27,-1
 56 441 l 1,28,-1
 56 441 l 1,29,-1
 79 452 l 1,30,-1
 79 452 l 1,31,-1
 101 454 l 1,0,-1
101 454 m 1,32,-1
 79 452 l 1,33,-1
 56 441 l 1,34,-1
 46 419 l 1,35,-1
 45 400 l 1,36,-1
 47 377 l 1,37,-1
 56 356 l 1,38,-1
 81 343 l 1,39,-1
 101 342 l 1,40,-1
 124 344 l 1,41,-1
 147 356 l 1,42,-1
 157 377 l 1,43,-1
 159 399 l 1,44,-1
 157 421 l 1,45,-1
 145 444 l 1,46,-1
 122 453 l 1,47,-1
 101 454 l 1,32,-1
101 235 m 1,48,-1
 101 235 l 1,49,-1
 101 -179 l 1,50,-1
 101 -179 l 1,51,-1
 101 235 l 1,48,-1
EndSplineSet
EndChar

StartChar: periodcentered
Encoding: 183 183 96
Width: 228
GlyphClass: 2
Flags: W
LayerCount: 2
Fore
SplineSet
103 446 m 1,0,-1
 103 446 l 1,1,-1
 124 445 l 1,2,-1
 124 445 l 1,3,-1
 147 436 l 1,4,-1
 147 436 l 1,5,-1
 159 413 l 1,6,-1
 159 413 l 1,7,-1
 161 391 l 1,8,-1
 161 391 l 1,9,-1
 159 369 l 1,10,-1
 159 369 l 1,11,-1
 149 348 l 1,12,-1
 149 348 l 1,13,-1
 126 336 l 1,14,-1
 126 336 l 1,15,-1
 103 334 l 1,16,-1
 103 334 l 1,17,-1
 83 335 l 1,18,-1
 83 335 l 1,19,-1
 58 348 l 1,20,-1
 58 348 l 1,21,-1
 49 369 l 1,22,-1
 49 369 l 1,23,-1
 47 392 l 1,24,-1
 47 392 l 1,25,-1
 48 411 l 1,26,-1
 48 411 l 1,27,-1
 58 433 l 1,28,-1
 58 433 l 1,29,-1
 81 444 l 1,30,-1
 81 444 l 1,31,-1
 103 446 l 1,0,-1
103 446 m 1,32,-1
 81 444 l 1,33,-1
 58 433 l 1,34,-1
 48 411 l 1,35,-1
 47 392 l 1,36,-1
 49 369 l 1,37,-1
 58 348 l 1,38,-1
 83 335 l 1,39,-1
 103 334 l 1,40,-1
 126 336 l 1,41,-1
 149 348 l 1,42,-1
 159 369 l 1,43,-1
 161 391 l 1,44,-1
 159 413 l 1,45,-1
 147 436 l 1,46,-1
 124 445 l 1,47,-1
 103 446 l 1,32,-1
EndSplineSet
EndChar

StartChar: questiondown
Encoding: 191 191 97
Width: 378
GlyphClass: 2
Flags: W
LayerCount: 2
Fore
SplineSet
212 340 m 1,0,-1
 212 340 l 1,1,-1
 191 341 l 1,2,-1
 191 341 l 1,3,-1
 168 350 l 1,4,-1
 168 350 l 1,5,-1
 156 373 l 1,6,-1
 156 373 l 1,7,-1
 154 395 l 1,8,-1
 154 395 l 1,9,-1
 156 417 l 1,10,-1
 156 417 l 1,11,-1
 166 438 l 1,12,-1
 166 438 l 1,13,-1
 189 450 l 1,14,-1
 189 450 l 1,15,-1
 212 452 l 1,16,-1
 212 452 l 1,17,-1
 232 451 l 1,18,-1
 232 451 l 1,19,-1
 257 438 l 1,20,-1
 257 438 l 1,21,-1
 266 417 l 1,22,-1
 266 417 l 1,23,-1
 268 394 l 1,24,-1
 268 394 l 1,25,-1
 267 375 l 1,26,-1
 267 375 l 1,27,-1
 257 353 l 1,28,-1
 257 353 l 1,29,-1
 234 342 l 1,30,-1
 234 342 l 1,31,-1
 212 340 l 1,0,-1
212 340 m 1,32,-1
 234 342 l 1,33,-1
 257 353 l 1,34,-1
 267 375 l 1,35,-1
 268 394 l 1,36,-1
 266 417 l 1,37,-1
 257 438 l 1,38,-1
 232 451 l 1,39,-1
 212 452 l 1,40,-1
 189 450 l 1,41,-1
 166 438 l 1,42,-1
 156 417 l 1,43,-1
 154 395 l 1,44,-1
 156 373 l 1,45,-1
 168 350 l 1,46,-1
 191 341 l 1,47,-1
 212 340 l 1,32,-1
198 -185 m 1,48,-1
 198 -185 l 1,49,-1
 164 -181 l 1,50,-1
 127 -173 l 1,51,-1
 127 -173 l 1,52,-1
 98 -157 l 1,53,-1
 98 -157 l 1,54,-1
 75 -135 l 1,55,-1
 75 -135 l 1,56,-1
 61 -106 l 1,57,-1
 61 -106 l 1,58,-1
 55 -49 l 1,59,-1
 55 -49 l 1,60,-1
 59 16 l 1,61,-1
 59 16 l 1,62,-1
 77 61 l 1,63,-1
 77 61 l 1,64,-1
 129 115 l 1,65,-1
 129 115 l 1,66,-1
 201 159 l 1,67,-1
 201 234 l 1,68,-1
 201 234 l 1,69,-1
 201 159 l 1,70,-1
 201 159 l 1,71,-1
 129 115 l 1,72,-1
 77 61 l 1,73,-1
 59 16 l 1,74,-1
 55 -49 l 1,75,-1
 61 -106 l 1,76,-1
 75 -135 l 1,77,-1
 98 -157 l 1,78,-1
 127 -173 l 1,79,-1
 164 -181 l 1,80,-1
 198 -185 l 1,81,-1
 231 -181 l 1,82,-1
 274 -168 l 1,83,-1
 301 -143 l 1,84,-1
 318 -118 l 1,85,-1
 323 -81 l 1,86,-1
 323 -81 l 1,87,-1
 318 -118 l 1,88,-1
 318 -118 l 1,89,-1
 301 -143 l 1,90,-1
 301 -143 l 1,91,-1
 274 -168 l 1,92,-1
 274 -168 l 1,93,-1
 231 -181 l 1,94,-1
 231 -181 l 1,95,-1
 198 -185 l 1,48,-1
EndSplineSet
EndChar

StartChar: Agrave
Encoding: 192 192 98
Width: 520
GlyphClass: 2
Flags: W
LayerCount: 2
Fore
SplineSet
261 604 m 1,0,-1
 261 604 l 1,1,-1
 465 -2 l 1,2,-1
 465 -2 l 1,3,-1
 399 195 l 1,4,-1
 121 195 l 1,5,-1
 54 -2 l 1,6,-1
 54 -2 l 1,7,-1
 261 604 l 1,0,-1
261 604 m 1,8,-1
 121 195 l 1,9,-1
 399 195 l 1,10,-1
 261 604 l 1,8,-1
177 788 m 1,11,-1
 355 702 l 1,12,-1
 355 702 l 1,13,-1
 177 788 l 1,14,-1
 177 788 l 1,11,-1
EndSplineSet
EndChar

StartChar: Aacute
Encoding: 193 193 99
Width: 520
GlyphClass: 2
Flags: W
LayerCount: 2
Fore
SplineSet
261 604 m 1,0,-1
 261 604 l 1,1,-1
 465 -2 l 1,2,-1
 465 -2 l 1,3,-1
 399 195 l 1,4,-1
 121 195 l 1,5,-1
 54 -2 l 1,6,-1
 54 -2 l 1,7,-1
 261 604 l 1,0,-1
261 604 m 1,8,-1
 121 195 l 1,9,-1
 399 195 l 1,10,-1
 261 604 l 1,8,-1
346 788 m 1,11,-1
 346 788 l 1,12,-1
 167 702 l 1,13,-1
 167 702 l 1,14,-1
 346 788 l 1,11,-1
EndSplineSet
EndChar

StartChar: Acircumflex
Encoding: 194 194 100
Width: 520
GlyphClass: 2
Flags: W
LayerCount: 2
Fore
SplineSet
261 604 m 1,0,-1
 261 604 l 1,1,-1
 465 -2 l 1,2,-1
 465 -2 l 1,3,-1
 399 195 l 1,4,-1
 121 195 l 1,5,-1
 54 -2 l 1,6,-1
 54 -2 l 1,7,-1
 261 604 l 1,0,-1
261 604 m 1,8,-1
 121 195 l 1,9,-1
 399 195 l 1,10,-1
 261 604 l 1,8,-1
261 779 m 1,11,-1
 261 779 l 1,12,-1
 390 694 l 1,13,-1
 390 694 l 1,14,-1
 261 779 l 1,15,-1
 133 694 l 1,16,-1
 133 694 l 1,17,-1
 261 779 l 1,11,-1
EndSplineSet
EndChar

StartChar: Atilde
Encoding: 195 195 101
Width: 520
GlyphClass: 2
Flags: W
LayerCount: 2
Fore
SplineSet
261 604 m 1,0,-1
 261 604 l 1,1,-1
 465 -2 l 1,2,-1
 465 -2 l 1,3,-1
 399 195 l 1,4,-1
 121 195 l 1,5,-1
 54 -2 l 1,6,-1
 54 -2 l 1,7,-1
 261 604 l 1,0,-1
261 604 m 1,8,-1
 121 195 l 1,9,-1
 399 195 l 1,10,-1
 261 604 l 1,8,-1
220 790 m 1,11,-1
 220 790 l 1,12,-1
 245 776 l 1,13,-1
 245 776 l 1,14,-1
 268 751 l 1,15,-1
 291 727 l 1,16,-1
 313 715 l 1,17,-1
 349 717 l 1,18,-1
 372 726 l 1,19,-1
 382 750 l 1,20,-1
 384 785 l 1,21,-1
 384 785 l 1,22,-1
 382 750 l 1,23,-1
 382 750 l 1,24,-1
 372 726 l 1,25,-1
 372 726 l 1,26,-1
 349 717 l 1,27,-1
 349 717 l 1,28,-1
 313 715 l 1,29,-1
 313 715 l 1,30,-1
 291 727 l 1,31,-1
 291 727 l 1,32,-1
 268 751 l 1,33,-1
 245 776 l 1,34,-1
 220 790 l 1,35,-1
 178 788 l 1,36,-1
 152 777 l 1,37,-1
 136 743 l 1,38,-1
 136 709 l 1,39,-1
 136 709 l 1,40,-1
 136 743 l 1,41,-1
 136 743 l 1,42,-1
 152 777 l 1,43,-1
 152 777 l 1,44,-1
 178 788 l 1,45,-1
 178 788 l 1,46,-1
 220 790 l 1,11,-1
EndSplineSet
EndChar

StartChar: Ccedilla
Encoding: 199 199 102
Width: 498
GlyphClass: 2
Flags: W
LayerCount: 2
Fore
SplineSet
276 589 m 1,0,-1
 276 589 l 1,1,-1
 373 576 l 1,2,-1
 373 576 l 1,3,-1
 453 539 l 1,4,-1
 453 539 l 1,5,-1
 373 576 l 1,6,-1
 276 589 l 1,7,-1
 172 574 l 1,8,-1
 101 512 l 1,9,-1
 58 423 l 1,10,-1
 45 293 l 1,11,-1
 54 165 l 1,12,-1
 92 75 l 1,13,-1
 167 14 l 1,14,-1
 273 -3 l 1,15,-1
 379 11 l 1,16,-1
 453 48 l 1,17,-1
 453 48 l 1,18,-1
 379 11 l 1,19,-1
 379 11 l 1,20,-1
 273 -3 l 1,21,-1
 307 -30 l 1,22,-1
 307 -30 l 1,23,-1
 322 -64 l 1,24,-1
 322 -64 l 1,25,-1
 307 -111 l 1,26,-1
 307 -111 l 1,27,-1
 282 -132 l 1,28,-1
 282 -132 l 1,29,-1
 262 -145 l 1,30,-1
 262 -145 l 1,31,-1
 233 -151 l 1,32,-1
 233 -151 l 1,33,-1
 211 -145 l 1,34,-1
 211 -145 l 1,35,-1
 193 -128 l 1,36,-1
 193 -128 l 1,37,-1
 211 -145 l 1,38,-1
 233 -151 l 1,39,-1
 262 -145 l 1,40,-1
 282 -132 l 1,41,-1
 307 -111 l 1,42,-1
 322 -64 l 1,43,-1
 307 -30 l 1,44,-1
 273 -3 l 1,45,-1
 167 14 l 1,46,-1
 167 14 l 1,47,-1
 92 75 l 1,48,-1
 92 75 l 1,49,-1
 54 165 l 1,50,-1
 54 165 l 1,51,-1
 45 293 l 1,52,-1
 45 293 l 1,53,-1
 58 423 l 1,54,-1
 58 423 l 1,55,-1
 101 512 l 1,56,-1
 101 512 l 1,57,-1
 172 574 l 1,58,-1
 172 574 l 1,59,-1
 276 589 l 1,0,-1
EndSplineSet
EndChar

StartChar: Egrave
Encoding: 200 200 103
Width: 392
GlyphClass: 2
Flags: W
LayerCount: 2
Fore
SplineSet
55 582 m 1,0,-1
 340 582 l 1,1,-1
 340 582 l 1,2,-1
 55 582 l 1,3,-1
 55 299 l 1,4,-1
 261 299 l 1,5,-1
 261 299 l 1,6,-1
 55 299 l 1,7,-1
 55 5 l 1,8,-1
 347 5 l 1,9,-1
 347 5 l 1,10,-1
 55 5 l 1,11,-1
 55 5 l 1,12,-1
 55 582 l 1,13,-1
 55 582 l 1,0,-1
91 788 m 1,14,-1
 270 702 l 1,15,-1
 270 702 l 1,16,-1
 91 788 l 1,17,-1
 91 788 l 1,14,-1
EndSplineSet
EndChar

StartChar: Eacute
Encoding: 201 201 104
Width: 392
GlyphClass: 2
Flags: W
LayerCount: 2
Fore
SplineSet
55 582 m 1,0,-1
 340 582 l 1,1,-1
 340 582 l 1,2,-1
 55 582 l 1,3,-1
 55 299 l 1,4,-1
 261 299 l 1,5,-1
 261 299 l 1,6,-1
 55 299 l 1,7,-1
 55 5 l 1,8,-1
 347 5 l 1,9,-1
 347 5 l 1,10,-1
 55 5 l 1,11,-1
 55 5 l 1,12,-1
 55 582 l 1,13,-1
 55 582 l 1,0,-1
269 779 m 1,14,-1
 269 779 l 1,15,-1
 269 779 l 1,16,-1
 269 779 l 1,17,-1
 90 692 l 1,18,-1
 90 692 l 1,19,-1
 90 692 l 1,20,-1
 90 692 l 1,21,-1
 269 779 l 1,14,-1
EndSplineSet
EndChar

StartChar: Ecircumflex
Encoding: 202 202 105
Width: 392
GlyphClass: 2
Flags: W
LayerCount: 2
Fore
SplineSet
55 582 m 1,0,-1
 340 582 l 1,1,-1
 340 582 l 1,2,-1
 55 582 l 1,3,-1
 55 299 l 1,4,-1
 261 299 l 1,5,-1
 261 299 l 1,6,-1
 55 299 l 1,7,-1
 55 5 l 1,8,-1
 347 5 l 1,9,-1
 347 5 l 1,10,-1
 55 5 l 1,11,-1
 55 5 l 1,12,-1
 55 582 l 1,13,-1
 55 582 l 1,0,-1
195 779 m 1,14,-1
 195 779 l 1,15,-1
 325 694 l 1,16,-1
 325 694 l 1,17,-1
 195 779 l 1,18,-1
 68 694 l 1,19,-1
 68 694 l 1,20,-1
 195 779 l 1,14,-1
EndSplineSet
EndChar

StartChar: Igrave
Encoding: 204 204 106
Width: 273
GlyphClass: 2
Flags: W
LayerCount: 2
Fore
SplineSet
49 788 m 1,0,-1
 228 702 l 1,1,-1
 228 702 l 1,2,-1
 49 788 l 1,3,-1
 49 788 l 1,0,-1
130 586 m 1,4,-1
 130 586 l 1,5,-1
 130 0 l 1,6,-1
 130 0 l 1,7,-1
 130 586 l 1,4,-1
EndSplineSet
EndChar

StartChar: Iacute
Encoding: 205 205 107
Width: 273
GlyphClass: 2
Flags: W
LayerCount: 2
Fore
SplineSet
130 586 m 1,0,-1
 130 586 l 1,1,-1
 130 0 l 1,2,-1
 130 0 l 1,3,-1
 130 586 l 1,0,-1
224 788 m 1,4,-1
 224 788 l 1,5,-1
 45 702 l 1,6,-1
 45 702 l 1,7,-1
 224 788 l 1,4,-1
EndSplineSet
EndChar

StartChar: Icircumflex
Encoding: 206 206 108
Width: 358
GlyphClass: 2
Flags: W
LayerCount: 2
Fore
SplineSet
175 779 m 1,0,-1
 175 779 l 1,1,-1
 304 694 l 1,2,-1
 304 694 l 1,3,-1
 175 779 l 1,4,-1
 47 694 l 1,5,-1
 47 694 l 1,6,-1
 175 779 l 1,0,-1
174 586 m 1,7,-1
 174 586 l 1,8,-1
 174 0 l 1,9,-1
 174 0 l 1,10,-1
 174 586 l 1,7,-1
EndSplineSet
EndChar

StartChar: Ograve
Encoding: 210 210 109
Width: 615
GlyphClass: 2
Flags: W
LayerCount: 2
Fore
SplineSet
312 594 m 1,0,-1
 312 594 l 1,1,-1
 415 568 l 1,2,-1
 415 568 l 1,3,-1
 492 507 l 1,4,-1
 492 507 l 1,5,-1
 537 412 l 1,6,-1
 537 412 l 1,7,-1
 560 293 l 1,8,-1
 560 293 l 1,9,-1
 537 175 l 1,10,-1
 537 175 l 1,11,-1
 490 82 l 1,12,-1
 490 82 l 1,13,-1
 413 18 l 1,14,-1
 413 18 l 1,15,-1
 312 -6 l 1,16,-1
 312 -6 l 1,17,-1
 209 18 l 1,18,-1
 209 18 l 1,19,-1
 129 80 l 1,20,-1
 129 80 l 1,21,-1
 80 177 l 1,22,-1
 80 177 l 1,23,-1
 55 293 l 1,24,-1
 55 293 l 1,25,-1
 80 408 l 1,26,-1
 80 408 l 1,27,-1
 129 509 l 1,28,-1
 129 509 l 1,29,-1
 209 570 l 1,30,-1
 209 570 l 1,31,-1
 312 594 l 1,0,-1
312 594 m 1,32,-1
 209 570 l 1,33,-1
 129 509 l 1,34,-1
 80 408 l 1,35,-1
 55 293 l 1,36,-1
 80 177 l 1,37,-1
 129 80 l 1,38,-1
 209 18 l 1,39,-1
 312 -6 l 1,40,-1
 413 18 l 1,41,-1
 490 82 l 1,42,-1
 537 175 l 1,43,-1
 560 293 l 1,44,-1
 537 412 l 1,45,-1
 492 507 l 1,46,-1
 415 568 l 1,47,-1
 312 594 l 1,32,-1
222 788 m 1,48,-1
 400 702 l 1,49,-1
 400 702 l 1,50,-1
 222 788 l 1,51,-1
 222 788 l 1,48,-1
EndSplineSet
EndChar

StartChar: Oacute
Encoding: 211 211 110
Width: 615
GlyphClass: 2
Flags: W
LayerCount: 2
Fore
SplineSet
312 594 m 1,0,-1
 312 594 l 1,1,-1
 415 568 l 1,2,-1
 415 568 l 1,3,-1
 492 507 l 1,4,-1
 492 507 l 1,5,-1
 537 412 l 1,6,-1
 537 412 l 1,7,-1
 560 293 l 1,8,-1
 560 293 l 1,9,-1
 537 175 l 1,10,-1
 537 175 l 1,11,-1
 490 82 l 1,12,-1
 490 82 l 1,13,-1
 413 18 l 1,14,-1
 413 18 l 1,15,-1
 312 -6 l 1,16,-1
 312 -6 l 1,17,-1
 209 18 l 1,18,-1
 209 18 l 1,19,-1
 129 80 l 1,20,-1
 129 80 l 1,21,-1
 80 177 l 1,22,-1
 80 177 l 1,23,-1
 55 293 l 1,24,-1
 55 293 l 1,25,-1
 80 408 l 1,26,-1
 80 408 l 1,27,-1
 129 509 l 1,28,-1
 129 509 l 1,29,-1
 209 570 l 1,30,-1
 209 570 l 1,31,-1
 312 594 l 1,0,-1
312 594 m 1,32,-1
 209 570 l 1,33,-1
 129 509 l 1,34,-1
 80 408 l 1,35,-1
 55 293 l 1,36,-1
 80 177 l 1,37,-1
 129 80 l 1,38,-1
 209 18 l 1,39,-1
 312 -6 l 1,40,-1
 413 18 l 1,41,-1
 490 82 l 1,42,-1
 537 175 l 1,43,-1
 560 293 l 1,44,-1
 537 412 l 1,45,-1
 492 507 l 1,46,-1
 415 568 l 1,47,-1
 312 594 l 1,32,-1
396 779 m 1,48,-1
 396 779 l 1,49,-1
 396 779 l 1,50,-1
 396 779 l 1,51,-1
 217 692 l 1,52,-1
 217 692 l 1,53,-1
 217 692 l 1,54,-1
 217 692 l 1,55,-1
 396 779 l 1,48,-1
EndSplineSet
EndChar

StartChar: Ocircumflex
Encoding: 212 212 111
Width: 615
GlyphClass: 2
Flags: W
LayerCount: 2
Fore
SplineSet
312 594 m 1,0,-1
 312 594 l 1,1,-1
 415 568 l 1,2,-1
 415 568 l 1,3,-1
 492 507 l 1,4,-1
 492 507 l 1,5,-1
 537 412 l 1,6,-1
 537 412 l 1,7,-1
 560 293 l 1,8,-1
 560 293 l 1,9,-1
 537 175 l 1,10,-1
 537 175 l 1,11,-1
 490 82 l 1,12,-1
 490 82 l 1,13,-1
 413 18 l 1,14,-1
 413 18 l 1,15,-1
 312 -6 l 1,16,-1
 312 -6 l 1,17,-1
 209 18 l 1,18,-1
 209 18 l 1,19,-1
 129 80 l 1,20,-1
 129 80 l 1,21,-1
 80 177 l 1,22,-1
 80 177 l 1,23,-1
 55 293 l 1,24,-1
 55 293 l 1,25,-1
 80 408 l 1,26,-1
 80 408 l 1,27,-1
 129 509 l 1,28,-1
 129 509 l 1,29,-1
 209 570 l 1,30,-1
 209 570 l 1,31,-1
 312 594 l 1,0,-1
312 594 m 1,32,-1
 209 570 l 1,33,-1
 129 509 l 1,34,-1
 80 408 l 1,35,-1
 55 293 l 1,36,-1
 80 177 l 1,37,-1
 129 80 l 1,38,-1
 209 18 l 1,39,-1
 312 -6 l 1,40,-1
 413 18 l 1,41,-1
 490 82 l 1,42,-1
 537 175 l 1,43,-1
 560 293 l 1,44,-1
 537 412 l 1,45,-1
 492 507 l 1,46,-1
 415 568 l 1,47,-1
 312 594 l 1,32,-1
306 779 m 1,48,-1
 306 779 l 1,49,-1
 436 694 l 1,50,-1
 436 694 l 1,51,-1
 306 779 l 1,52,-1
 179 694 l 1,53,-1
 179 694 l 1,54,-1
 306 779 l 1,48,-1
EndSplineSet
EndChar

StartChar: Otilde
Encoding: 213 213 112
Width: 615
GlyphClass: 2
Flags: W
LayerCount: 2
Fore
SplineSet
254 790 m 1,0,-1
 254 790 l 1,1,-1
 279 776 l 1,2,-1
 279 776 l 1,3,-1
 302 751 l 1,4,-1
 325 727 l 1,5,-1
 347 715 l 1,6,-1
 383 717 l 1,7,-1
 406 726 l 1,8,-1
 416 750 l 1,9,-1
 418 785 l 1,10,-1
 418 785 l 1,11,-1
 416 750 l 1,12,-1
 416 750 l 1,13,-1
 406 726 l 1,14,-1
 406 726 l 1,15,-1
 383 717 l 1,16,-1
 383 717 l 1,17,-1
 347 715 l 1,18,-1
 347 715 l 1,19,-1
 325 727 l 1,20,-1
 325 727 l 1,21,-1
 302 751 l 1,22,-1
 279 776 l 1,23,-1
 254 790 l 1,24,-1
 212 788 l 1,25,-1
 186 777 l 1,26,-1
 170 743 l 1,27,-1
 170 709 l 1,28,-1
 170 709 l 1,29,-1
 170 743 l 1,30,-1
 170 743 l 1,31,-1
 186 777 l 1,32,-1
 186 777 l 1,33,-1
 212 788 l 1,34,-1
 212 788 l 1,35,-1
 254 790 l 1,0,-1
312 594 m 1,36,-1
 312 594 l 1,37,-1
 415 568 l 1,38,-1
 415 568 l 1,39,-1
 492 507 l 1,40,-1
 492 507 l 1,41,-1
 537 412 l 1,42,-1
 537 412 l 1,43,-1
 560 293 l 1,44,-1
 560 293 l 1,45,-1
 537 175 l 1,46,-1
 537 175 l 1,47,-1
 490 82 l 1,48,-1
 490 82 l 1,49,-1
 413 18 l 1,50,-1
 413 18 l 1,51,-1
 312 -6 l 1,52,-1
 312 -6 l 1,53,-1
 209 18 l 1,54,-1
 209 18 l 1,55,-1
 129 80 l 1,56,-1
 129 80 l 1,57,-1
 80 177 l 1,58,-1
 80 177 l 1,59,-1
 55 293 l 1,60,-1
 55 293 l 1,61,-1
 80 408 l 1,62,-1
 80 408 l 1,63,-1
 129 509 l 1,64,-1
 129 509 l 1,65,-1
 209 570 l 1,66,-1
 209 570 l 1,67,-1
 312 594 l 1,36,-1
312 594 m 1,68,-1
 209 570 l 1,69,-1
 129 509 l 1,70,-1
 80 408 l 1,71,-1
 55 293 l 1,72,-1
 80 177 l 1,73,-1
 129 80 l 1,74,-1
 209 18 l 1,75,-1
 312 -6 l 1,76,-1
 413 18 l 1,77,-1
 490 82 l 1,78,-1
 537 175 l 1,79,-1
 560 293 l 1,80,-1
 537 412 l 1,81,-1
 492 507 l 1,82,-1
 415 568 l 1,83,-1
 312 594 l 1,68,-1
EndSplineSet
EndChar

StartChar: multiply
Encoding: 215 215 113
Width: 358
GlyphClass: 2
Flags: W
LayerCount: 2
Fore
SplineSet
313 398 m 1,0,-1
 313 398 l 1,1,-1
 178 268 l 1,2,-1
 313 137 l 1,3,-1
 313 137 l 1,4,-1
 178 268 l 1,5,-1
 45 140 l 1,6,-1
 45 140 l 1,7,-1
 178 268 l 1,8,-1
 45 395 l 1,9,-1
 45 395 l 1,10,-1
 178 268 l 1,11,-1
 313 398 l 1,0,-1
EndSplineSet
EndChar

StartChar: Ugrave
Encoding: 217 217 114
Width: 446
GlyphClass: 2
Flags: W
LayerCount: 2
Fore
SplineSet
391 616 m 1,0,-1
 391 616 l 1,1,-1
 391 177 l 1,2,-1
 391 177 l 1,3,-1
 376 104 l 1,4,-1
 376 104 l 1,5,-1
 342 54 l 1,6,-1
 342 54 l 1,7,-1
 293 12 l 1,8,-1
 293 12 l 1,9,-1
 226 -4 l 1,10,-1
 226 -4 l 1,11,-1
 158 12 l 1,12,-1
 158 12 l 1,13,-1
 107 54 l 1,14,-1
 107 54 l 1,15,-1
 72 105 l 1,16,-1
 72 105 l 1,17,-1
 55 177 l 1,18,-1
 55 177 l 1,19,-1
 55 615 l 1,20,-1
 55 615 l 1,21,-1
 55 177 l 1,22,-1
 72 105 l 1,23,-1
 107 54 l 1,24,-1
 158 12 l 1,25,-1
 226 -4 l 1,26,-1
 293 12 l 1,27,-1
 342 54 l 1,28,-1
 376 104 l 1,29,-1
 391 177 l 1,30,-1
 391 616 l 1,0,-1
129 779 m 1,31,-1
 129 779 l 1,32,-1
 129 779 l 1,31,-1
EndSplineSet
EndChar

StartChar: Uacute
Encoding: 218 218 115
Width: 446
GlyphClass: 2
Flags: W
LayerCount: 2
Fore
SplineSet
391 616 m 1,0,-1
 391 616 l 1,1,-1
 391 177 l 1,2,-1
 391 177 l 1,3,-1
 376 104 l 1,4,-1
 376 104 l 1,5,-1
 342 54 l 1,6,-1
 342 54 l 1,7,-1
 293 12 l 1,8,-1
 293 12 l 1,9,-1
 226 -4 l 1,10,-1
 226 -4 l 1,11,-1
 158 12 l 1,12,-1
 158 12 l 1,13,-1
 107 54 l 1,14,-1
 107 54 l 1,15,-1
 72 105 l 1,16,-1
 72 105 l 1,17,-1
 55 177 l 1,18,-1
 55 177 l 1,19,-1
 55 615 l 1,20,-1
 55 615 l 1,21,-1
 55 177 l 1,22,-1
 72 105 l 1,23,-1
 107 54 l 1,24,-1
 158 12 l 1,25,-1
 226 -4 l 1,26,-1
 293 12 l 1,27,-1
 342 54 l 1,28,-1
 376 104 l 1,29,-1
 391 177 l 1,30,-1
 391 616 l 1,0,-1
320 779 m 1,31,-1
 320 779 l 1,32,-1
 320 779 l 1,33,-1
 320 779 l 1,34,-1
 141 692 l 1,35,-1
 141 692 l 1,36,-1
 141 693 l 1,37,-1
 141 692 l 1,38,-1
 320 779 l 1,31,-1
EndSplineSet
EndChar

StartChar: Ucircumflex
Encoding: 219 219 116
Width: 446
GlyphClass: 2
Flags: W
LayerCount: 2
Fore
SplineSet
226 779 m 1,0,-1
 226 779 l 1,1,-1
 355 694 l 1,2,-1
 355 694 l 1,3,-1
 226 779 l 1,4,-1
 98 694 l 1,5,-1
 98 694 l 1,6,-1
 226 779 l 1,0,-1
391 616 m 1,7,-1
 391 616 l 1,8,-1
 391 177 l 1,9,-1
 391 177 l 1,10,-1
 376 104 l 1,11,-1
 376 104 l 1,12,-1
 342 54 l 1,13,-1
 342 54 l 1,14,-1
 293 12 l 1,15,-1
 293 12 l 1,16,-1
 226 -4 l 1,17,-1
 226 -4 l 1,18,-1
 158 12 l 1,19,-1
 158 12 l 1,20,-1
 107 54 l 1,21,-1
 107 54 l 1,22,-1
 72 105 l 1,23,-1
 72 105 l 1,24,-1
 55 177 l 1,25,-1
 55 177 l 1,26,-1
 55 615 l 1,27,-1
 55 615 l 1,28,-1
 55 177 l 1,29,-1
 72 105 l 1,30,-1
 107 54 l 1,31,-1
 158 12 l 1,32,-1
 226 -4 l 1,33,-1
 293 12 l 1,34,-1
 342 54 l 1,35,-1
 376 104 l 1,36,-1
 391 177 l 1,37,-1
 391 616 l 1,7,-1
EndSplineSet
EndChar

StartChar: agrave
Encoding: 224 224 117
Width: 412
GlyphClass: 2
Flags: W
LayerCount: 2
Fore
SplineSet
214 469 m 1,0,-1
 214 469 l 1,1,-1
 307 451 l 1,2,-1
 307 451 l 1,3,-1
 357 392 l 1,4,-1
 357 392 l 1,5,-1
 357 204 l 1,6,-1
 357 -14 l 1,7,-1
 357 -14 l 1,8,-1
 283 -15 l 1,9,-1
 191 -15 l 1,10,-1
 191 -15 l 1,11,-1
 88 28 l 1,12,-1
 88 28 l 1,13,-1
 45 128 l 1,14,-1
 45 128 l 1,15,-1
 90 215 l 1,16,-1
 90 215 l 1,17,-1
 203 264 l 1,18,-1
 203 264 l 1,19,-1
 310 251 l 1,20,-1
 310 251 l 1,21,-1
 357 204 l 1,22,-1
 357 392 l 1,23,-1
 307 451 l 1,24,-1
 214 469 l 1,25,-1
 137 465 l 1,26,-1
 70 416 l 1,27,-1
 70 416 l 1,28,-1
 137 465 l 1,29,-1
 137 465 l 1,30,-1
 214 469 l 1,0,-1
203 264 m 1,31,-1
 90 215 l 1,32,-1
 45 128 l 1,33,-1
 88 28 l 1,34,-1
 191 -15 l 1,35,-1
 283 -15 l 1,36,-1
 357 -14 l 1,37,-1
 357 204 l 1,38,-1
 310 251 l 1,39,-1
 203 264 l 1,31,-1
131 672 m 1,40,-1
 309 577 l 1,41,-1
 309 577 l 1,42,-1
 131 672 l 1,43,-1
 131 672 l 1,40,-1
EndSplineSet
EndChar

StartChar: aacute
Encoding: 225 225 118
Width: 412
GlyphClass: 2
Flags: W
LayerCount: 2
Fore
SplineSet
214 469 m 1,0,-1
 214 469 l 1,1,-1
 307 451 l 1,2,-1
 307 451 l 1,3,-1
 357 392 l 1,4,-1
 357 392 l 1,5,-1
 357 204 l 1,6,-1
 357 -14 l 1,7,-1
 357 -14 l 1,8,-1
 283 -15 l 1,9,-1
 191 -15 l 1,10,-1
 191 -15 l 1,11,-1
 88 28 l 1,12,-1
 88 28 l 1,13,-1
 45 128 l 1,14,-1
 45 128 l 1,15,-1
 90 215 l 1,16,-1
 90 215 l 1,17,-1
 203 264 l 1,18,-1
 203 264 l 1,19,-1
 310 251 l 1,20,-1
 310 251 l 1,21,-1
 357 204 l 1,22,-1
 357 392 l 1,23,-1
 307 451 l 1,24,-1
 214 469 l 1,25,-1
 137 465 l 1,26,-1
 70 416 l 1,27,-1
 70 416 l 1,28,-1
 137 465 l 1,29,-1
 137 465 l 1,30,-1
 214 469 l 1,0,-1
203 264 m 1,31,-1
 90 215 l 1,32,-1
 45 128 l 1,33,-1
 88 28 l 1,34,-1
 191 -15 l 1,35,-1
 283 -15 l 1,36,-1
 357 -14 l 1,37,-1
 357 204 l 1,38,-1
 310 251 l 1,39,-1
 203 264 l 1,31,-1
308 672 m 1,40,-1
 308 672 l 1,41,-1
 129 577 l 1,42,-1
 129 577 l 1,43,-1
 308 672 l 1,40,-1
EndSplineSet
EndChar

StartChar: acircumflex
Encoding: 226 226 119
Width: 412
GlyphClass: 2
Flags: W
LayerCount: 2
Fore
SplineSet
214 469 m 1,0,-1
 214 469 l 1,1,-1
 307 451 l 1,2,-1
 307 451 l 1,3,-1
 357 392 l 1,4,-1
 357 392 l 1,5,-1
 357 204 l 1,6,-1
 357 -14 l 1,7,-1
 357 -14 l 1,8,-1
 283 -15 l 1,9,-1
 191 -15 l 1,10,-1
 191 -15 l 1,11,-1
 88 28 l 1,12,-1
 88 28 l 1,13,-1
 45 128 l 1,14,-1
 45 128 l 1,15,-1
 90 215 l 1,16,-1
 90 215 l 1,17,-1
 203 264 l 1,18,-1
 203 264 l 1,19,-1
 310 251 l 1,20,-1
 310 251 l 1,21,-1
 357 204 l 1,22,-1
 357 392 l 1,23,-1
 307 451 l 1,24,-1
 214 469 l 1,25,-1
 137 465 l 1,26,-1
 70 416 l 1,27,-1
 70 416 l 1,28,-1
 137 465 l 1,29,-1
 137 465 l 1,30,-1
 214 469 l 1,0,-1
203 264 m 1,31,-1
 90 215 l 1,32,-1
 45 128 l 1,33,-1
 88 28 l 1,34,-1
 191 -15 l 1,35,-1
 283 -15 l 1,36,-1
 357 -14 l 1,37,-1
 357 204 l 1,38,-1
 310 251 l 1,39,-1
 203 264 l 1,31,-1
210 689 m 1,40,-1
 210 689 l 1,41,-1
 339 604 l 1,42,-1
 339 604 l 1,43,-1
 210 689 l 1,44,-1
 82 604 l 1,45,-1
 82 604 l 1,46,-1
 210 689 l 1,40,-1
EndSplineSet
EndChar

StartChar: atilde
Encoding: 227 227 120
Width: 412
GlyphClass: 2
Flags: W
LayerCount: 2
Fore
SplineSet
214 469 m 1,0,-1
 214 469 l 1,1,-1
 307 451 l 1,2,-1
 307 451 l 1,3,-1
 357 392 l 1,4,-1
 357 392 l 1,5,-1
 357 204 l 1,6,-1
 357 -14 l 1,7,-1
 357 -14 l 1,8,-1
 283 -15 l 1,9,-1
 191 -15 l 1,10,-1
 191 -15 l 1,11,-1
 88 28 l 1,12,-1
 88 28 l 1,13,-1
 45 128 l 1,14,-1
 45 128 l 1,15,-1
 90 215 l 1,16,-1
 90 215 l 1,17,-1
 203 264 l 1,18,-1
 203 264 l 1,19,-1
 310 251 l 1,20,-1
 310 251 l 1,21,-1
 357 204 l 1,22,-1
 357 392 l 1,23,-1
 307 451 l 1,24,-1
 214 469 l 1,25,-1
 137 465 l 1,26,-1
 70 416 l 1,27,-1
 70 416 l 1,28,-1
 137 465 l 1,29,-1
 137 465 l 1,30,-1
 214 469 l 1,0,-1
203 264 m 1,31,-1
 90 215 l 1,32,-1
 45 128 l 1,33,-1
 88 28 l 1,34,-1
 191 -15 l 1,35,-1
 283 -15 l 1,36,-1
 357 -14 l 1,37,-1
 357 204 l 1,38,-1
 310 251 l 1,39,-1
 203 264 l 1,31,-1
169 685 m 1,40,-1
 169 685 l 1,41,-1
 194 671 l 1,42,-1
 194 671 l 1,43,-1
 217 646 l 1,44,-1
 240 622 l 1,45,-1
 262 610 l 1,46,-1
 298 612 l 1,47,-1
 321 621 l 1,48,-1
 331 645 l 1,49,-1
 333 680 l 1,50,-1
 333 680 l 1,51,-1
 331 645 l 1,52,-1
 331 645 l 1,53,-1
 321 621 l 1,54,-1
 321 621 l 1,55,-1
 298 612 l 1,56,-1
 298 612 l 1,57,-1
 262 610 l 1,58,-1
 262 610 l 1,59,-1
 240 622 l 1,60,-1
 240 622 l 1,61,-1
 217 646 l 1,62,-1
 194 671 l 1,63,-1
 169 685 l 1,64,-1
 127 683 l 1,65,-1
 101 672 l 1,66,-1
 85 638 l 1,67,-1
 85 604 l 1,68,-1
 85 604 l 1,69,-1
 85 638 l 1,70,-1
 85 638 l 1,71,-1
 101 672 l 1,72,-1
 101 672 l 1,73,-1
 127 683 l 1,74,-1
 127 683 l 1,75,-1
 169 685 l 1,40,-1
EndSplineSet
EndChar

StartChar: ccedilla
Encoding: 231 231 121
Width: 371
GlyphClass: 2
Flags: W
LayerCount: 2
Fore
SplineSet
324 464 m 1,0,-1
 324 464 l 1,1,-1
 255 455 l 1,2,-1
 186 433 l 1,3,-1
 85 352 l 1,4,-1
 45 239 l 1,5,-1
 84 119 l 1,6,-1
 221 16 l 1,7,-1
 254 -1 l 1,8,-1
 324 -14 l 1,9,-1
 324 -14 l 1,10,-1
 254 -1 l 1,11,-1
 254 -1 l 1,12,-1
 221 16 l 1,13,-1
 238 -13 l 1,14,-1
 238 -13 l 1,15,-1
 246 -66 l 1,16,-1
 246 -66 l 1,17,-1
 235 -134 l 1,18,-1
 235 -134 l 1,19,-1
 212 -187 l 1,20,-1
 212 -187 l 1,21,-1
 192 -207 l 1,22,-1
 192 -207 l 1,23,-1
 164 -214 l 1,24,-1
 164 -214 l 1,25,-1
 134 -206 l 1,26,-1
 134 -206 l 1,27,-1
 118 -186 l 1,28,-1
 118 -186 l 1,29,-1
 134 -206 l 1,30,-1
 164 -214 l 1,31,-1
 192 -207 l 1,32,-1
 212 -187 l 1,33,-1
 235 -134 l 1,34,-1
 246 -66 l 1,35,-1
 238 -13 l 1,36,-1
 221 16 l 1,37,-1
 221 16 l 1,38,-1
 221 16 l 1,39,-1
 84 119 l 1,40,-1
 84 119 l 1,41,-1
 45 239 l 1,42,-1
 45 239 l 1,43,-1
 85 352 l 1,44,-1
 85 352 l 1,45,-1
 186 433 l 1,46,-1
 186 433 l 1,47,-1
 255 455 l 1,48,-1
 255 455 l 1,49,-1
 324 464 l 1,0,-1
EndSplineSet
EndChar

StartChar: egrave
Encoding: 232 232 122
Width: 438
GlyphClass: 2
Flags: W
LayerCount: 2
Fore
SplineSet
233 459 m 1,0,-1
 233 459 l 1,1,-1
 320 440 l 1,2,-1
 320 440 l 1,3,-1
 364 382 l 1,4,-1
 364 382 l 1,5,-1
 389 310 l 1,6,-1
 389 309 l 1,7,-1
 389 233 l 1,8,-1
 389 233 l 1,9,-1
 305 208 l 1,10,-1
 217 183 l 1,11,-1
 217 183 l 1,12,-1
 133 208 l 1,13,-1
 45 238 l 1,14,-1
 64 154 l 1,15,-1
 104 86 l 1,16,-1
 158 28 l 1,17,-1
 229 -14 l 1,18,-1
 284 -11 l 1,19,-1
 326 4 l 1,20,-1
 365 28 l 1,21,-1
 392 66 l 1,22,-1
 392 66 l 1,23,-1
 365 28 l 1,24,-1
 365 28 l 1,25,-1
 326 4 l 1,26,-1
 326 4 l 1,27,-1
 284 -11 l 1,28,-1
 284 -11 l 1,29,-1
 229 -14 l 1,30,-1
 229 -14 l 1,31,-1
 158 28 l 1,32,-1
 158 28 l 1,33,-1
 104 86 l 1,34,-1
 104 86 l 1,35,-1
 64 154 l 1,36,-1
 64 154 l 1,37,-1
 45 238 l 1,38,-1
 45 238 l 1,39,-1
 56 321 l 1,40,-1
 56 321 l 1,41,-1
 88 383 l 1,42,-1
 88 383 l 1,43,-1
 141 442 l 1,44,-1
 141 442 l 1,45,-1
 233 459 l 1,0,-1
233 459 m 1,46,-1
 141 442 l 1,47,-1
 88 383 l 1,48,-1
 56 321 l 1,49,-1
 45 238 l 1,50,-1
 133 208 l 1,51,-1
 217 183 l 1,52,-1
 305 208 l 1,53,-1
 389 233 l 1,54,-1
 389 310 l 1,55,-1
 364 382 l 1,56,-1
 320 440 l 1,57,-1
 233 459 l 1,46,-1
147 672 m 1,58,-1
 325 577 l 1,59,-1
 325 577 l 1,60,-1
 147 672 l 1,61,-1
 147 672 l 1,58,-1
EndSplineSet
EndChar

StartChar: eacute
Encoding: 233 233 123
Width: 438
GlyphClass: 2
Flags: W
LayerCount: 2
Fore
SplineSet
233 459 m 1,0,-1
 233 459 l 1,1,-1
 320 440 l 1,2,-1
 320 440 l 1,3,-1
 364 382 l 1,4,-1
 364 382 l 1,5,-1
 389 310 l 1,6,-1
 389 309 l 1,7,-1
 389 233 l 1,8,-1
 389 233 l 1,9,-1
 305 208 l 1,10,-1
 217 183 l 1,11,-1
 217 183 l 1,12,-1
 133 208 l 1,13,-1
 45 238 l 1,14,-1
 64 154 l 1,15,-1
 104 86 l 1,16,-1
 158 28 l 1,17,-1
 229 -14 l 1,18,-1
 284 -11 l 1,19,-1
 326 4 l 1,20,-1
 365 28 l 1,21,-1
 392 66 l 1,22,-1
 392 66 l 1,23,-1
 365 28 l 1,24,-1
 365 28 l 1,25,-1
 326 4 l 1,26,-1
 326 4 l 1,27,-1
 284 -11 l 1,28,-1
 284 -11 l 1,29,-1
 229 -14 l 1,30,-1
 229 -14 l 1,31,-1
 158 28 l 1,32,-1
 158 28 l 1,33,-1
 104 86 l 1,34,-1
 104 86 l 1,35,-1
 64 154 l 1,36,-1
 64 154 l 1,37,-1
 45 238 l 1,38,-1
 45 238 l 1,39,-1
 56 321 l 1,40,-1
 56 321 l 1,41,-1
 88 383 l 1,42,-1
 88 383 l 1,43,-1
 141 442 l 1,44,-1
 141 442 l 1,45,-1
 233 459 l 1,0,-1
233 459 m 1,46,-1
 141 442 l 1,47,-1
 88 383 l 1,48,-1
 56 321 l 1,49,-1
 45 238 l 1,50,-1
 133 208 l 1,51,-1
 217 183 l 1,52,-1
 305 208 l 1,53,-1
 389 233 l 1,54,-1
 389 310 l 1,55,-1
 364 382 l 1,56,-1
 320 440 l 1,57,-1
 233 459 l 1,46,-1
324 672 m 1,58,-1
 324 672 l 1,59,-1
 146 577 l 1,60,-1
 146 577 l 1,61,-1
 324 672 l 1,58,-1
EndSplineSet
EndChar

StartChar: ecircumflex
Encoding: 234 234 124
Width: 438
GlyphClass: 2
Flags: W
LayerCount: 2
Fore
SplineSet
233 459 m 1,0,-1
 233 459 l 1,1,-1
 320 440 l 1,2,-1
 320 440 l 1,3,-1
 364 382 l 1,4,-1
 364 382 l 1,5,-1
 389 310 l 1,6,-1
 389 309 l 1,7,-1
 389 233 l 1,8,-1
 389 233 l 1,9,-1
 305 208 l 1,10,-1
 217 183 l 1,11,-1
 217 183 l 1,12,-1
 133 208 l 1,13,-1
 45 238 l 1,14,-1
 64 154 l 1,15,-1
 104 86 l 1,16,-1
 158 28 l 1,17,-1
 229 -14 l 1,18,-1
 284 -11 l 1,19,-1
 326 4 l 1,20,-1
 365 28 l 1,21,-1
 392 66 l 1,22,-1
 392 66 l 1,23,-1
 365 28 l 1,24,-1
 365 28 l 1,25,-1
 326 4 l 1,26,-1
 326 4 l 1,27,-1
 284 -11 l 1,28,-1
 284 -11 l 1,29,-1
 229 -14 l 1,30,-1
 229 -14 l 1,31,-1
 158 28 l 1,32,-1
 158 28 l 1,33,-1
 104 86 l 1,34,-1
 104 86 l 1,35,-1
 64 154 l 1,36,-1
 64 154 l 1,37,-1
 45 238 l 1,38,-1
 45 238 l 1,39,-1
 56 321 l 1,40,-1
 56 321 l 1,41,-1
 88 383 l 1,42,-1
 88 383 l 1,43,-1
 141 442 l 1,44,-1
 141 442 l 1,45,-1
 233 459 l 1,0,-1
233 459 m 1,46,-1
 141 442 l 1,47,-1
 88 383 l 1,48,-1
 56 321 l 1,49,-1
 45 238 l 1,50,-1
 133 208 l 1,51,-1
 217 183 l 1,52,-1
 305 208 l 1,53,-1
 389 233 l 1,54,-1
 389 310 l 1,55,-1
 364 382 l 1,56,-1
 320 440 l 1,57,-1
 233 459 l 1,46,-1
210 689 m 1,58,-1
 210 689 l 1,59,-1
 339 604 l 1,60,-1
 339 604 l 1,61,-1
 210 689 l 1,62,-1
 82 604 l 1,63,-1
 82 604 l 1,64,-1
 210 689 l 1,58,-1
EndSplineSet
EndChar

StartChar: igrave
Encoding: 236 236 125
Width: 275
GlyphClass: 2
Flags: W
LayerCount: 2
Fore
SplineSet
45 672 m 1,0,-1
 223 577 l 1,1,-1
 223 577 l 1,2,-1
 45 672 l 1,3,-1
 45 672 l 1,0,-1
129 474 m 1,4,-1
 129 474 l 1,5,-1
 129 0 l 1,6,-1
 129 0 l 1,7,-1
 129 474 l 1,4,-1
EndSplineSet
EndChar

StartChar: iacute
Encoding: 237 237 126
Width: 273
GlyphClass: 2
Flags: W
LayerCount: 2
Fore
SplineSet
228 672 m 1,0,-1
 228 672 l 1,1,-1
 50 577 l 1,2,-1
 50 577 l 1,3,-1
 228 672 l 1,0,-1
131 474 m 1,4,-1
 131 474 l 1,5,-1
 131 0 l 1,6,-1
 131 0 l 1,7,-1
 131 474 l 1,4,-1
EndSplineSet
EndChar

StartChar: icircumflex
Encoding: 238 238 127
Width: 361
GlyphClass: 2
Flags: W
LayerCount: 2
Fore
SplineSet
170 690 m 1,0,-1
 170 690 l 1,1,-1
 299 605 l 1,2,-1
 299 605 l 1,3,-1
 170 690 l 1,4,-1
 42 605 l 1,5,-1
 42 605 l 1,6,-1
 170 690 l 1,0,-1
174 474 m 1,7,-1
 174 474 l 1,8,-1
 174 0 l 1,9,-1
 174 0 l 1,10,-1
 174 474 l 1,7,-1
EndSplineSet
EndChar

StartChar: ntilde
Encoding: 241 241 128
Width: 363
GlyphClass: 2
Flags: W
LayerCount: 2
Fore
SplineSet
179 490 m 1,0,-1
 247 491 l 1,1,-1
 247 491 l 1,2,-1
 318 347 l 1,3,-1
 318 347 l 1,4,-1
 318 0 l 1,5,-1
 318 0 l 1,6,-1
 318 347 l 1,7,-1
 247 491 l 1,8,-1
 179 490 l 1,9,-1
 99 439 l 1,10,-1
 55 363 l 1,11,-1
 55 0 l 1,12,-1
 55 0 l 1,13,-1
 55 474 l 1,14,-1
 55 474 l 1,15,-1
 55 363 l 1,16,-1
 99 439 l 1,17,-1
 99 439 l 1,18,-1
 179 490 l 1,19,-1
 179 490 l 1,0,-1
134 685 m 1,20,-1
 134 685 l 1,21,-1
 159 671 l 1,22,-1
 159 671 l 1,23,-1
 182 646 l 1,24,-1
 205 622 l 1,25,-1
 227 610 l 1,26,-1
 263 612 l 1,27,-1
 286 621 l 1,28,-1
 296 645 l 1,29,-1
 298 680 l 1,30,-1
 298 680 l 1,31,-1
 296 645 l 1,32,-1
 296 645 l 1,33,-1
 286 621 l 1,34,-1
 286 621 l 1,35,-1
 263 612 l 1,36,-1
 263 612 l 1,37,-1
 227 610 l 1,38,-1
 227 610 l 1,39,-1
 205 622 l 1,40,-1
 205 622 l 1,41,-1
 182 646 l 1,42,-1
 159 671 l 1,43,-1
 134 685 l 1,44,-1
 92 683 l 1,45,-1
 66 672 l 1,46,-1
 50 638 l 1,47,-1
 50 604 l 1,48,-1
 50 604 l 1,49,-1
 50 638 l 1,50,-1
 50 638 l 1,51,-1
 66 672 l 1,52,-1
 66 672 l 1,53,-1
 92 683 l 1,54,-1
 92 683 l 1,55,-1
 134 685 l 1,20,-1
EndSplineSet
EndChar

StartChar: ograve
Encoding: 242 242 129
Width: 490
GlyphClass: 2
Flags: W
LayerCount: 2
Fore
SplineSet
247 476 m 1,0,-1
 247 476 l 1,1,-1
 331 454 l 1,2,-1
 331 454 l 1,3,-1
 393 403 l 1,4,-1
 393 403 l 1,5,-1
 427 326 l 1,6,-1
 427 326 l 1,7,-1
 445 228 l 1,8,-1
 445 228 l 1,9,-1
 427 132 l 1,10,-1
 427 132 l 1,11,-1
 390 56 l 1,12,-1
 390 56 l 1,13,-1
 328 3 l 1,14,-1
 328 3 l 1,15,-1
 250 -16 l 1,16,-1
 250 -16 l 1,17,-1
 165 4 l 1,18,-1
 165 4 l 1,19,-1
 104 55 l 1,20,-1
 104 55 l 1,21,-1
 64 135 l 1,22,-1
 64 135 l 1,23,-1
 45 230 l 1,24,-1
 45 230 l 1,25,-1
 65 324 l 1,26,-1
 65 324 l 1,27,-1
 104 407 l 1,28,-1
 104 407 l 1,29,-1
 167 457 l 1,30,-1
 167 457 l 1,31,-1
 247 476 l 1,0,-1
247 476 m 1,32,-1
 167 457 l 1,33,-1
 104 407 l 1,34,-1
 65 324 l 1,35,-1
 45 230 l 1,36,-1
 64 135 l 1,37,-1
 104 55 l 1,38,-1
 165 4 l 1,39,-1
 250 -16 l 1,40,-1
 328 3 l 1,41,-1
 390 56 l 1,42,-1
 427 132 l 1,43,-1
 445 228 l 1,44,-1
 427 326 l 1,45,-1
 393 403 l 1,46,-1
 331 454 l 1,47,-1
 247 476 l 1,32,-1
154 672 m 1,48,-1
 333 577 l 1,49,-1
 333 577 l 1,50,-1
 154 672 l 1,51,-1
 154 672 l 1,48,-1
EndSplineSet
EndChar

StartChar: oacute
Encoding: 243 243 130
Width: 490
GlyphClass: 2
Flags: W
LayerCount: 2
Fore
SplineSet
247 476 m 1,0,-1
 247 476 l 1,1,-1
 331 454 l 1,2,-1
 331 454 l 1,3,-1
 393 403 l 1,4,-1
 393 403 l 1,5,-1
 427 326 l 1,6,-1
 427 326 l 1,7,-1
 445 228 l 1,8,-1
 445 228 l 1,9,-1
 427 132 l 1,10,-1
 427 132 l 1,11,-1
 390 56 l 1,12,-1
 390 56 l 1,13,-1
 328 3 l 1,14,-1
 328 3 l 1,15,-1
 250 -16 l 1,16,-1
 250 -16 l 1,17,-1
 165 4 l 1,18,-1
 165 4 l 1,19,-1
 104 55 l 1,20,-1
 104 55 l 1,21,-1
 64 135 l 1,22,-1
 64 135 l 1,23,-1
 45 230 l 1,24,-1
 45 230 l 1,25,-1
 65 324 l 1,26,-1
 65 324 l 1,27,-1
 104 407 l 1,28,-1
 104 407 l 1,29,-1
 167 457 l 1,30,-1
 167 457 l 1,31,-1
 247 476 l 1,0,-1
247 476 m 1,32,-1
 167 457 l 1,33,-1
 104 407 l 1,34,-1
 65 324 l 1,35,-1
 45 230 l 1,36,-1
 64 135 l 1,37,-1
 104 55 l 1,38,-1
 165 4 l 1,39,-1
 250 -16 l 1,40,-1
 328 3 l 1,41,-1
 390 56 l 1,42,-1
 427 132 l 1,43,-1
 445 228 l 1,44,-1
 427 326 l 1,45,-1
 393 403 l 1,46,-1
 331 454 l 1,47,-1
 247 476 l 1,32,-1
335 672 m 1,48,-1
 335 672 l 1,49,-1
 157 577 l 1,50,-1
 157 577 l 1,51,-1
 335 672 l 1,48,-1
EndSplineSet
EndChar

StartChar: ocircumflex
Encoding: 244 244 131
Width: 490
GlyphClass: 2
Flags: W
LayerCount: 2
Fore
SplineSet
241 688 m 1,0,-1
 241 688 l 1,1,-1
 370 603 l 1,2,-1
 370 603 l 1,3,-1
 241 688 l 1,4,-1
 113 603 l 1,5,-1
 113 603 l 1,6,-1
 241 688 l 1,0,-1
247 476 m 1,7,-1
 247 476 l 1,8,-1
 331 454 l 1,9,-1
 331 454 l 1,10,-1
 393 403 l 1,11,-1
 393 403 l 1,12,-1
 427 326 l 1,13,-1
 427 326 l 1,14,-1
 445 228 l 1,15,-1
 445 228 l 1,16,-1
 427 132 l 1,17,-1
 427 132 l 1,18,-1
 390 56 l 1,19,-1
 390 56 l 1,20,-1
 328 3 l 1,21,-1
 328 3 l 1,22,-1
 250 -16 l 1,23,-1
 250 -16 l 1,24,-1
 165 4 l 1,25,-1
 165 4 l 1,26,-1
 104 55 l 1,27,-1
 104 55 l 1,28,-1
 64 135 l 1,29,-1
 64 135 l 1,30,-1
 45 230 l 1,31,-1
 45 230 l 1,32,-1
 65 324 l 1,33,-1
 65 324 l 1,34,-1
 104 407 l 1,35,-1
 104 407 l 1,36,-1
 167 457 l 1,37,-1
 167 457 l 1,38,-1
 247 476 l 1,7,-1
247 476 m 1,39,-1
 167 457 l 1,40,-1
 104 407 l 1,41,-1
 65 324 l 1,42,-1
 45 230 l 1,43,-1
 64 135 l 1,44,-1
 104 55 l 1,45,-1
 165 4 l 1,46,-1
 250 -16 l 1,47,-1
 328 3 l 1,48,-1
 390 56 l 1,49,-1
 427 132 l 1,50,-1
 445 228 l 1,51,-1
 427 326 l 1,52,-1
 393 403 l 1,53,-1
 331 454 l 1,54,-1
 247 476 l 1,39,-1
EndSplineSet
EndChar

StartChar: otilde
Encoding: 245 245 132
Width: 490
GlyphClass: 2
Flags: W
LayerCount: 2
Fore
SplineSet
201 685 m 1,0,-1
 201 685 l 1,1,-1
 226 671 l 1,2,-1
 226 671 l 1,3,-1
 249 646 l 1,4,-1
 272 622 l 1,5,-1
 294 610 l 1,6,-1
 330 612 l 1,7,-1
 353 621 l 1,8,-1
 363 645 l 1,9,-1
 365 680 l 1,10,-1
 365 680 l 1,11,-1
 363 645 l 1,12,-1
 363 645 l 1,13,-1
 353 621 l 1,14,-1
 353 621 l 1,15,-1
 330 612 l 1,16,-1
 330 612 l 1,17,-1
 294 610 l 1,18,-1
 294 610 l 1,19,-1
 272 622 l 1,20,-1
 272 622 l 1,21,-1
 249 646 l 1,22,-1
 226 671 l 1,23,-1
 201 685 l 1,24,-1
 159 683 l 1,25,-1
 133 672 l 1,26,-1
 117 638 l 1,27,-1
 117 604 l 1,28,-1
 117 604 l 1,29,-1
 117 638 l 1,30,-1
 117 638 l 1,31,-1
 133 672 l 1,32,-1
 133 672 l 1,33,-1
 159 683 l 1,34,-1
 159 683 l 1,35,-1
 201 685 l 1,0,-1
247 476 m 1,36,-1
 247 476 l 1,37,-1
 331 454 l 1,38,-1
 331 454 l 1,39,-1
 393 403 l 1,40,-1
 393 403 l 1,41,-1
 427 326 l 1,42,-1
 427 326 l 1,43,-1
 445 228 l 1,44,-1
 445 228 l 1,45,-1
 427 132 l 1,46,-1
 427 132 l 1,47,-1
 390 56 l 1,48,-1
 390 56 l 1,49,-1
 328 3 l 1,50,-1
 328 3 l 1,51,-1
 250 -16 l 1,52,-1
 250 -16 l 1,53,-1
 165 4 l 1,54,-1
 165 4 l 1,55,-1
 104 55 l 1,56,-1
 104 55 l 1,57,-1
 64 135 l 1,58,-1
 64 135 l 1,59,-1
 45 230 l 1,60,-1
 45 230 l 1,61,-1
 65 324 l 1,62,-1
 65 324 l 1,63,-1
 104 407 l 1,64,-1
 104 407 l 1,65,-1
 167 457 l 1,66,-1
 167 457 l 1,67,-1
 247 476 l 1,36,-1
247 476 m 1,68,-1
 167 457 l 1,69,-1
 104 407 l 1,70,-1
 65 324 l 1,71,-1
 45 230 l 1,72,-1
 64 135 l 1,73,-1
 104 55 l 1,74,-1
 165 4 l 1,75,-1
 250 -16 l 1,76,-1
 328 3 l 1,77,-1
 390 56 l 1,78,-1
 427 132 l 1,79,-1
 445 228 l 1,80,-1
 427 326 l 1,81,-1
 393 403 l 1,82,-1
 331 454 l 1,83,-1
 247 476 l 1,68,-1
EndSplineSet
EndChar

StartChar: ugrave
Encoding: 249 249 133
Width: 367
GlyphClass: 2
Flags: W
LayerCount: 2
Fore
SplineSet
45 454 m 1,0,-1
 45 454 l 1,1,-1
 45 130 l 1,2,-1
 48 80 l 1,3,-1
 59 39 l 1,4,-1
 92 3 l 1,5,-1
 138 -14 l 1,6,-1
 207 -6 l 1,7,-1
 272 39 l 1,8,-1
 312 111 l 1,9,-1
 312 454 l 1,10,-1
 312 454 l 1,11,-1
 312 1 l 1,12,-1
 312 1 l 1,13,-1
 312 111 l 1,14,-1
 272 39 l 1,15,-1
 272 39 l 1,16,-1
 207 -6 l 1,17,-1
 207 -6 l 1,18,-1
 138 -14 l 1,19,-1
 138 -14 l 1,20,-1
 92 3 l 1,21,-1
 92 3 l 1,22,-1
 59 39 l 1,23,-1
 59 39 l 1,24,-1
 48 80 l 1,25,-1
 48 81 l 1,26,-1
 45 130 l 1,27,-1
 45 454 l 1,0,-1
89 672 m 1,28,-1
 267 577 l 1,29,-1
 267 577 l 1,30,-1
 89 672 l 1,31,-1
 89 672 l 1,28,-1
EndSplineSet
EndChar

StartChar: uacute
Encoding: 250 250 134
Width: 367
GlyphClass: 2
Flags: W
LayerCount: 2
Fore
SplineSet
45 454 m 1,0,-1
 45 454 l 1,1,-1
 45 130 l 1,2,-1
 48 80 l 1,3,-1
 59 39 l 1,4,-1
 92 3 l 1,5,-1
 138 -14 l 1,6,-1
 207 -6 l 1,7,-1
 272 39 l 1,8,-1
 312 111 l 1,9,-1
 312 454 l 1,10,-1
 312 454 l 1,11,-1
 312 1 l 1,12,-1
 312 1 l 1,13,-1
 312 111 l 1,14,-1
 272 39 l 1,15,-1
 272 39 l 1,16,-1
 207 -6 l 1,17,-1
 207 -6 l 1,18,-1
 138 -14 l 1,19,-1
 138 -14 l 1,20,-1
 92 3 l 1,21,-1
 92 3 l 1,22,-1
 59 39 l 1,23,-1
 59 39 l 1,24,-1
 48 80 l 1,25,-1
 48 81 l 1,26,-1
 45 130 l 1,27,-1
 45 454 l 1,0,-1
288 672 m 1,28,-1
 288 672 l 1,29,-1
 109 577 l 1,30,-1
 109 577 l 1,31,-1
 288 672 l 1,28,-1
EndSplineSet
EndChar

StartChar: ucircumflex
Encoding: 251 251 135
Width: 367
GlyphClass: 2
Flags: W
LayerCount: 2
Fore
SplineSet
175 689 m 1,0,-1
 175 689 l 1,1,-1
 304 604 l 1,2,-1
 304 604 l 1,3,-1
 175 689 l 1,4,-1
 47 604 l 1,5,-1
 47 604 l 1,6,-1
 175 689 l 1,0,-1
45 454 m 1,7,-1
 45 454 l 1,8,-1
 45 130 l 1,9,-1
 48 80 l 1,10,-1
 59 39 l 1,11,-1
 92 3 l 1,12,-1
 138 -14 l 1,13,-1
 207 -6 l 1,14,-1
 272 39 l 1,15,-1
 312 111 l 1,16,-1
 312 454 l 1,17,-1
 312 454 l 1,18,-1
 312 1 l 1,19,-1
 312 1 l 1,20,-1
 312 111 l 1,21,-1
 272 39 l 1,22,-1
 272 39 l 1,23,-1
 207 -6 l 1,24,-1
 207 -6 l 1,25,-1
 138 -14 l 1,26,-1
 138 -14 l 1,27,-1
 92 3 l 1,28,-1
 92 3 l 1,29,-1
 59 39 l 1,30,-1
 59 39 l 1,31,-1
 48 80 l 1,32,-1
 48 81 l 1,33,-1
 45 130 l 1,34,-1
 45 454 l 1,7,-1
EndSplineSet
EndChar
